<?xml version="1.0" encoding="utf-8"?>
<!-- Generator: Adobe Illustrator 22.0.1, SVG Export Plug-In . SVG Version: 6.00 Build 0)  -->
<svg version="1.1" id="Layer_1" xmlns="http://www.w3.org/2000/svg" xmlns:xlink="http://www.w3.org/1999/xlink" x="0px" y="0px"
	 viewBox="0 0 260.4 138.4" style="enable-background:new 0 0 260.4 138.4;" xml:space="preserve">
<style type="text/css">
	.st0{fill:#F0B31C;}
	.st1{fill:#EC1C24;}
	.st2{fill-rule:evenodd;clip-rule:evenodd;fill:#EC1C24;}
	.st3{fill-rule:evenodd;clip-rule:evenodd;fill:#FFCD2A;}
</style>
<g>
	<rect x="130.1" y="69.9" class="st0" width="0.3" height="0.1"/>
	<g>
		<path class="st1" d="M30.9,119.1h-2.5c-0.3,0-0.5-0.1-0.7-0.2s-0.3-0.3-0.4-0.5l-1.3-3.5h-7.1l-1.3,3.5c-0.1,0.2-0.2,0.3-0.4,0.5
			c-0.2,0.1-0.4,0.2-0.7,0.2h-2.5L21,102h3.2L30.9,119.1z M25.3,112.6l-2.1-5.7c-0.1-0.3-0.2-0.6-0.3-0.9c-0.1-0.3-0.2-0.7-0.3-1.1
			c-0.1,0.4-0.2,0.8-0.3,1.1c-0.1,0.3-0.2,0.7-0.3,0.9l-2.1,5.6H25.3z"/>
		<path class="st1" d="M38.6,116.5c0.6,0,1.2-0.1,1.6-0.3c0.5-0.2,0.9-0.5,1.2-0.9c0.3-0.4,0.6-0.8,0.8-1.3c0.2-0.5,0.3-1.1,0.3-1.8
			V102h3.2v10.2c0,1-0.2,2-0.5,2.8c-0.3,0.9-0.8,1.6-1.4,2.2s-1.4,1.1-2.2,1.5c-0.9,0.3-1.9,0.5-2.9,0.5c-1.1,0-2.1-0.2-3-0.5
			s-1.6-0.8-2.2-1.5s-1.1-1.4-1.4-2.2s-0.5-1.8-0.5-2.8V102h3.2v10.2c0,0.7,0.1,1.2,0.3,1.8c0.2,0.5,0.4,1,0.8,1.4s0.7,0.7,1.2,0.9
			C37.4,116.4,37.9,116.5,38.6,116.5z"/>
		<path class="st1" d="M60.5,104.6h-5.1v14.4h-3.2v-14.4h-5.1V102h13.5V104.6z"/>
		<path class="st1" d="M77.9,110.5c0,1.3-0.2,2.4-0.6,3.5s-1,2-1.8,2.8c-0.8,0.8-1.7,1.4-2.7,1.8s-2.2,0.7-3.5,0.7
			c-1.3,0-2.5-0.2-3.5-0.7c-1.1-0.4-2-1-2.7-1.8s-1.3-1.7-1.8-2.8c-0.4-1.1-0.6-2.2-0.6-3.5s0.2-2.4,0.6-3.5c0.4-1.1,1-2,1.8-2.8
			s1.7-1.4,2.7-1.8c1.1-0.4,2.2-0.7,3.5-0.7c0.9,0,1.7,0.1,2.4,0.3c0.8,0.2,1.5,0.5,2.1,0.8c0.6,0.4,1.2,0.8,1.7,1.3
			c0.5,0.5,0.9,1.1,1.3,1.8s0.6,1.3,0.8,2.1C77.8,108.9,77.9,109.7,77.9,110.5z M74.6,110.5c0-0.9-0.1-1.8-0.4-2.5
			c-0.3-0.7-0.6-1.4-1.1-1.9c-0.5-0.5-1-0.9-1.7-1.2c-0.7-0.3-1.4-0.4-2.2-0.4s-1.6,0.1-2.2,0.4c-0.7,0.3-1.2,0.7-1.7,1.2
			c-0.5,0.5-0.8,1.2-1.1,1.9c-0.3,0.7-0.4,1.6-0.4,2.5s0.1,1.8,0.4,2.5s0.6,1.4,1.1,1.9c0.5,0.5,1,0.9,1.7,1.2s1.4,0.4,2.2,0.4
			s1.6-0.1,2.2-0.4c0.7-0.3,1.2-0.7,1.7-1.2c0.5-0.5,0.8-1.1,1.1-1.9S74.6,111.5,74.6,110.5z"/>
		<path class="st1" d="M85.9,102c1.1,0,2.1,0.1,2.9,0.3c0.8,0.2,1.4,0.5,2,0.9c0.5,0.4,0.9,0.9,1.1,1.4s0.4,1.2,0.4,1.9
			c0,0.4-0.1,0.8-0.2,1.1c-0.1,0.4-0.3,0.7-0.5,1c-0.2,0.3-0.6,0.6-0.9,0.9c-0.4,0.3-0.8,0.5-1.4,0.7c2.3,0.5,3.5,1.8,3.5,3.8
			c0,0.7-0.1,1.4-0.4,2c-0.3,0.6-0.7,1.1-1.2,1.6s-1.2,0.8-1.9,1c-0.8,0.3-1.7,0.4-2.6,0.4h-6.4V102H85.9z M83.2,104.5v4.9h2.5
			c1.1,0,1.9-0.2,2.5-0.6c0.6-0.4,0.8-1,0.8-1.9c0-0.9-0.3-1.5-0.8-1.9c-0.5-0.4-1.3-0.6-2.4-0.6H83.2z M86.5,116.6
			c0.6,0,1.1-0.1,1.5-0.2c0.4-0.1,0.7-0.3,1-0.6c0.2-0.2,0.4-0.5,0.5-0.8c0.1-0.3,0.2-0.6,0.2-1c0-0.4-0.1-0.7-0.2-1
			c-0.1-0.3-0.3-0.5-0.6-0.8s-0.6-0.4-1-0.5c-0.4-0.1-0.9-0.2-1.4-0.2h-3.2v5H86.5z"/>
		<path class="st1" d="M111.3,110.5c0,1.3-0.2,2.4-0.6,3.5s-1,2-1.8,2.8c-0.8,0.8-1.7,1.4-2.7,1.8s-2.2,0.7-3.5,0.7
			c-1.3,0-2.5-0.2-3.5-0.7c-1.1-0.4-2-1-2.7-1.8s-1.3-1.7-1.8-2.8c-0.4-1.1-0.6-2.2-0.6-3.5s0.2-2.4,0.6-3.5c0.4-1.1,1-2,1.8-2.8
			s1.7-1.4,2.7-1.8c1.1-0.4,2.2-0.7,3.5-0.7c0.9,0,1.7,0.1,2.4,0.3c0.8,0.2,1.5,0.5,2.1,0.8c0.6,0.4,1.2,0.8,1.7,1.3
			c0.5,0.5,0.9,1.1,1.3,1.8s0.6,1.3,0.8,2.1C111.2,108.9,111.3,109.7,111.3,110.5z M108,110.5c0-0.9-0.1-1.8-0.4-2.5
			c-0.3-0.7-0.6-1.4-1.1-1.9c-0.5-0.5-1-0.9-1.7-1.2c-0.7-0.3-1.4-0.4-2.2-0.4s-1.6,0.1-2.2,0.4c-0.7,0.3-1.2,0.7-1.7,1.2
			c-0.5,0.5-0.8,1.2-1.1,1.9c-0.3,0.7-0.4,1.6-0.4,2.5s0.1,1.8,0.4,2.5s0.6,1.4,1.1,1.9c0.5,0.5,1,0.9,1.7,1.2s1.4,0.4,2.2,0.4
			s1.6-0.1,2.2-0.4c0.7-0.3,1.2-0.7,1.7-1.2c0.5-0.5,0.8-1.1,1.1-1.9S108,111.5,108,110.5z"/>
		<path class="st1" d="M128.6,110.5c0,1.3-0.2,2.4-0.6,3.4c-0.4,1-1,1.9-1.8,2.7c-0.8,0.8-1.7,1.3-2.7,1.8c-1.1,0.4-2.2,0.6-3.5,0.6
			h-6.5V102h6.5c1.3,0,2.5,0.2,3.5,0.6c1.1,0.4,2,1,2.7,1.8s1.3,1.6,1.8,2.7C128.4,108.1,128.6,109.3,128.6,110.5z M125.4,110.5
			c0-0.9-0.1-1.8-0.4-2.5c-0.2-0.7-0.6-1.4-1.1-1.9c-0.5-0.5-1-0.9-1.7-1.2c-0.7-0.3-1.4-0.4-2.2-0.4h-3.3v12h3.3
			c0.8,0,1.6-0.1,2.2-0.4c0.7-0.3,1.2-0.7,1.7-1.2c0.5-0.5,0.8-1.1,1.1-1.9C125.2,112.3,125.4,111.5,125.4,110.5z"/>
		<path class="st1" d="M137.1,112.5v6.6H134v-6.6l-6.2-10.4h2.8c0.3,0,0.5,0.1,0.7,0.2c0.2,0.1,0.3,0.3,0.4,0.5l3.1,5.7
			c0.2,0.3,0.3,0.7,0.5,1c0.1,0.3,0.3,0.6,0.4,0.9c0.1-0.3,0.2-0.6,0.4-0.9c0.1-0.3,0.3-0.6,0.5-1l3.1-5.7c0.1-0.2,0.2-0.3,0.4-0.5
			c0.2-0.1,0.4-0.2,0.7-0.2h2.8L137.1,112.5z"/>
		<path class="st1" d="M162.7,110.9v6.5c-0.8,0.6-1.8,1.1-2.7,1.4s-2,0.5-3.2,0.5c-1.4,0-2.6-0.2-3.7-0.6c-1.1-0.4-2-1-2.8-1.8
			s-1.4-1.7-1.8-2.7s-0.6-2.2-0.6-3.5c0-1.3,0.2-2.5,0.6-3.5c0.4-1.1,1-2,1.7-2.7s1.7-1.3,2.7-1.8c1.1-0.4,2.3-0.6,3.6-0.6
			c0.7,0,1.3,0,1.9,0.1c0.6,0.1,1.1,0.2,1.6,0.4c0.5,0.2,0.9,0.4,1.4,0.7c0.4,0.3,0.8,0.6,1.2,0.9l-0.6,1c-0.1,0.2-0.2,0.3-0.4,0.3
			s-0.3,0-0.5-0.1c-0.2-0.1-0.4-0.2-0.6-0.4c-0.2-0.2-0.5-0.3-0.9-0.5c-0.4-0.1-0.8-0.3-1.2-0.4c-0.5-0.1-1-0.2-1.7-0.2
			c-1,0-1.8,0.2-2.6,0.5s-1.4,0.8-2,1.3c-0.5,0.6-1,1.3-1.3,2.1c-0.3,0.8-0.4,1.7-0.4,2.8c0,1.1,0.2,2,0.5,2.8
			c0.3,0.8,0.7,1.5,1.3,2.1c0.6,0.6,1.2,1,2,1.3s1.7,0.5,2.7,0.5c0.8,0,1.5-0.1,2.1-0.3c0.6-0.2,1.2-0.4,1.8-0.7v-3.7H158
			c-0.1,0-0.3,0-0.4-0.1s-0.1-0.2-0.1-0.3v-1.3H162.7z"/>
		<path class="st1" d="M178.1,119.1h-2c-0.4,0-0.7-0.2-0.9-0.5l-4.4-6c-0.1-0.2-0.3-0.3-0.4-0.4c-0.2-0.1-0.4-0.1-0.7-0.1h-1.7v7.1
			h-2.3v-16.9h4.8c1.1,0,2,0.1,2.8,0.3c0.8,0.2,1.4,0.5,1.9,0.9c0.5,0.4,0.9,0.9,1.1,1.5c0.2,0.6,0.4,1.2,0.4,1.9
			c0,0.6-0.1,1.2-0.3,1.7c-0.2,0.5-0.5,1-0.8,1.4c-0.4,0.4-0.8,0.8-1.3,1.1c-0.5,0.3-1.1,0.5-1.8,0.7c0.3,0.2,0.5,0.4,0.8,0.7
			L178.1,119.1z M170.3,110.3c0.7,0,1.2-0.1,1.8-0.2c0.5-0.2,0.9-0.4,1.3-0.7s0.6-0.6,0.8-1.1c0.2-0.4,0.3-0.9,0.3-1.4
			c0-1-0.3-1.8-1-2.3c-0.7-0.5-1.7-0.8-3-0.8h-2.5v6.4H170.3z"/>
		<path class="st1" d="M195.2,110.6c0,1.3-0.2,2.4-0.6,3.5c-0.4,1.1-1,2-1.7,2.7s-1.6,1.4-2.6,1.8s-2.2,0.6-3.4,0.6
			s-2.4-0.2-3.4-0.6s-1.9-1-2.6-1.8s-1.3-1.7-1.7-2.7s-0.6-2.2-0.6-3.5c0-1.3,0.2-2.4,0.6-3.5s1-2,1.7-2.7s1.6-1.4,2.6-1.8
			c1-0.4,2.2-0.6,3.4-0.6s2.4,0.2,3.4,0.6c1,0.4,1.9,1,2.6,1.8s1.3,1.7,1.7,2.7C195,108.2,195.2,109.3,195.2,110.6z M192.9,110.6
			c0-1-0.1-2-0.4-2.8c-0.3-0.8-0.7-1.5-1.2-2.1c-0.5-0.6-1.1-1-1.9-1.3s-1.6-0.5-2.5-0.5c-0.9,0-1.7,0.2-2.5,0.5s-1.4,0.7-1.9,1.3
			c-0.5,0.6-0.9,1.3-1.2,2.1c-0.3,0.8-0.4,1.8-0.4,2.8c0,1,0.1,2,0.4,2.8c0.3,0.8,0.7,1.5,1.2,2.1c0.5,0.6,1.2,1,1.9,1.3
			c0.7,0.3,1.6,0.5,2.5,0.5c0.9,0,1.7-0.2,2.5-0.5c0.7-0.3,1.4-0.7,1.9-1.3c0.5-0.6,0.9-1.3,1.2-2.1
			C192.7,112.6,192.9,111.6,192.9,110.6z"/>
		<path class="st1" d="M204.4,117.2c0.7,0,1.3-0.1,1.9-0.4c0.6-0.2,1-0.6,1.4-1c0.4-0.4,0.7-0.9,0.9-1.5s0.3-1.2,0.3-1.9v-10.3h2.3
			v10.3c0,1-0.2,1.9-0.5,2.7c-0.3,0.8-0.8,1.6-1.3,2.2s-1.3,1.1-2.1,1.4c-0.8,0.3-1.8,0.5-2.8,0.5s-2-0.2-2.8-0.5s-1.5-0.8-2.1-1.4
			s-1-1.3-1.3-2.2c-0.3-0.8-0.5-1.7-0.5-2.7v-10.3h2.3v10.3c0,0.7,0.1,1.4,0.3,1.9c0.2,0.6,0.5,1.1,0.9,1.5c0.4,0.4,0.8,0.8,1.4,1
			S203.7,117.2,204.4,117.2z"/>
		<path class="st1" d="M219.6,102.2c1.1,0,2,0.1,2.8,0.4s1.4,0.6,2,1.1s0.9,1,1.2,1.7c0.3,0.6,0.4,1.4,0.4,2.2
			c0,0.8-0.1,1.5-0.4,2.2c-0.3,0.7-0.7,1.2-1.2,1.7c-0.5,0.5-1.2,0.8-2,1.1c-0.8,0.3-1.7,0.4-2.7,0.4h-2.7v6.3h-2.3v-16.9H219.6z
			 M219.6,110.9c0.7,0,1.2-0.1,1.7-0.3c0.5-0.2,0.9-0.4,1.3-0.7c0.3-0.3,0.6-0.7,0.8-1.1c0.2-0.4,0.3-0.9,0.3-1.4
			c0-1.1-0.3-1.9-1-2.5c-0.7-0.6-1.7-0.9-3-0.9h-2.7v7H219.6z"/>
	</g>
	<g>
		<path d="M25.9,86.4h19.8V94H16.1V56h9.8V86.4z"/>
		<path d="M79.7,94H49.5V56h30.1v7.6H59.3v7.3h16v7.6h-16v7.9h20.4V94z"/>
		<path d="M93.2,94.4c-3.5,0-6.2-0.8-7.8-2.5c-1.7-1.7-2.5-4.3-2.5-7.8V66.8c0-3.8,0.9-6.5,2.6-8.2c1.7-1.7,4.5-2.6,8.3-2.6h19.5
			v7.6H96c-2.2,0-3.3,1.1-3.3,3.2v17.3c0,0.8,0.2,1.5,0.7,2c0.5,0.5,1.1,0.7,2,0.7c1.1,0,2.3,0,3.6,0c1.3,0,2.6,0,3.7,0
			c1.3,0,2.7,0,4.1,0v-8h-7.1v-6.5h16.8v20.9c-2.7,0.4-5.4,0.6-8.2,0.6c-2.4,0.4-4.9,0.6-7.6,0.6C98.1,94.4,95.6,94.4,93.2,94.4z"/>
		<path d="M128.8,94h-10.6l14.4-38h10.9l14.4,38h-10.6l-2.4-6.8h-13.6L128.8,94z M133.7,80.2h8.7L138,67.4L133.7,80.2z"/>
		<path d="M168.7,94.2c-3.5,0-6.2-0.8-7.8-2.5c-1.7-1.6-2.5-4.2-2.5-7.7V66.8c0-3.8,0.9-6.5,2.6-8.2c1.7-1.7,4.5-2.6,8.3-2.6h19.5
			v7.6h-17.4c-2.2,0-3.3,1.1-3.3,3.2v17.3c0,0.8,0.2,1.5,0.7,2c0.5,0.5,1.1,0.7,2,0.7c0.7,0,1.5,0,2.4,0c0.9,0,1.8,0,2.8,0s2,0,3,0
			c1,0,2-0.2,2.9-0.5c2.2,0,4.5,0,6.8,0v7.1c-2.4,0.5-4.8,0.7-7.2,0.7c-2.1,0-4.2,0-6.5,0C172.7,94.2,170.6,94.2,168.7,94.2z"/>
		<path d="M188.8,56h10.3l9,18.5l9-18.5h10.3L213,84v10h-9.8V84L188.8,56z"/>
	</g>
	<g>
		<path d="M17.5,126.6l-0.4,2.9h3.2l-0.2,1.3H17l-0.5,3.8h-1.7l1.2-9.4h5.5l-0.2,1.3H17.5z"/>
		<path d="M24.5,133.2c-0.3,0.5-0.6,0.8-1,1.1s-0.8,0.4-1.2,0.4c-0.3,0-0.5,0-0.7-0.1s-0.4-0.2-0.6-0.4c-0.2-0.2-0.3-0.4-0.4-0.7
			c-0.1-0.3-0.1-0.6-0.1-1c0-0.4,0-0.8,0.1-1.2s0.2-0.7,0.4-1.1c0.2-0.3,0.4-0.6,0.7-0.9c0.3-0.3,0.6-0.5,0.9-0.7
			c0.3-0.2,0.7-0.4,1-0.5c0.4-0.1,0.8-0.2,1.2-0.2c0.3,0,0.6,0,0.9,0.1c0.3,0,0.6,0.1,0.9,0.2l-0.8,6.5H25c-0.2,0-0.3-0.1-0.4-0.2
			s-0.1-0.2-0.1-0.4L24.5,133.2z M24.9,129c-0.1,0-0.1,0-0.2,0c-0.1,0-0.1,0-0.2,0c-0.4,0-0.7,0.1-1,0.2c-0.3,0.2-0.6,0.4-0.8,0.7
			c-0.2,0.3-0.4,0.6-0.5,1c-0.1,0.4-0.2,0.8-0.2,1.2c0,0.5,0.1,0.8,0.2,1c0.1,0.2,0.3,0.3,0.6,0.3c0.2,0,0.4-0.1,0.5-0.2
			s0.3-0.3,0.5-0.5s0.3-0.5,0.4-0.8c0.1-0.3,0.2-0.6,0.3-0.9L24.9,129z"/>
		<path d="M27.1,134.6l0.8-6.7h0.8c0.2,0,0.3,0,0.4,0.1c0.1,0.1,0.1,0.2,0.1,0.4l0,0.7c0.3-0.5,0.6-0.8,1-1c0.4-0.2,0.7-0.3,1.1-0.3
			c0.4,0,0.7,0.1,1,0.4s0.4,0.7,0.4,1.2c0.3-0.5,0.7-0.9,1-1.2c0.4-0.3,0.8-0.4,1.2-0.4c0.3,0,0.5,0.1,0.7,0.2
			c0.2,0.1,0.4,0.3,0.5,0.5s0.2,0.5,0.3,0.8c0,0.3,0,0.7,0,1.1l-0.5,4.2h-1.6l0.5-4.2c0.1-0.4,0-0.7,0-0.9c-0.1-0.2-0.2-0.3-0.5-0.3
			c-0.2,0-0.3,0-0.5,0.1c-0.2,0.1-0.3,0.2-0.4,0.4c-0.1,0.2-0.3,0.4-0.4,0.6c-0.1,0.2-0.2,0.5-0.3,0.8l-0.4,3.5h-1.6l0.5-4.2
			c0.1-0.4,0-0.7,0-0.9c-0.1-0.2-0.2-0.3-0.5-0.3c-0.2,0-0.3,0-0.5,0.1c-0.2,0.1-0.3,0.2-0.4,0.4c-0.1,0.2-0.3,0.4-0.4,0.6
			c-0.1,0.2-0.2,0.5-0.3,0.8l-0.4,3.5H27.1z"/>
		<path d="M39.6,128l-0.8,6.7h-1.6L38,128H39.6z M40,126c0,0.1,0,0.3-0.1,0.4c-0.1,0.1-0.1,0.2-0.2,0.3s-0.2,0.2-0.3,0.2
			c-0.1,0.1-0.2,0.1-0.4,0.1c-0.1,0-0.2,0-0.4-0.1c-0.1-0.1-0.2-0.1-0.3-0.2s-0.2-0.2-0.2-0.3S38,126.2,38,126c0-0.1,0-0.3,0.1-0.4
			c0.1-0.1,0.1-0.2,0.2-0.3s0.2-0.2,0.3-0.2c0.1-0.1,0.2-0.1,0.4-0.1c0.1,0,0.3,0,0.4,0.1c0.1,0.1,0.2,0.1,0.3,0.2s0.2,0.2,0.2,0.3
			C40,125.7,40,125.9,40,126z"/>
		<path d="M40.1,134.6l1.2-9.6h1.6l-1.2,9.6H40.1z"/>
		<path d="M49.4,128l-4.4,8.5c-0.1,0.1-0.1,0.2-0.2,0.2c-0.1,0.1-0.2,0.1-0.3,0.1h-1.2l1.5-2.7l-1.7-6.1h1.3c0.1,0,0.2,0,0.3,0.1
			c0.1,0.1,0.1,0.1,0.1,0.2l0.8,3.4c0,0.2,0.1,0.4,0.1,0.7c0-0.1,0.1-0.2,0.1-0.3s0.1-0.2,0.2-0.3l1.6-3.5c0-0.1,0.1-0.2,0.2-0.2
			c0.1-0.1,0.2-0.1,0.3-0.1H49.4z"/>
		<path d="M48.7,136.2c-0.1-0.1-0.1-0.1-0.1-0.2c0-0.1,0-0.1,0.1-0.2c0.1-0.1,0.2-0.2,0.2-0.3c0.1-0.1,0.2-0.2,0.3-0.4
			s0.2-0.3,0.2-0.5c-0.1,0-0.3,0-0.4-0.1c-0.1,0-0.2-0.1-0.3-0.2c-0.1-0.1-0.1-0.2-0.2-0.3c0-0.1-0.1-0.2-0.1-0.4
			c0-0.1,0-0.2,0.1-0.3c0-0.1,0.1-0.2,0.2-0.3s0.2-0.1,0.3-0.2c0.1,0,0.2-0.1,0.4-0.1c0.2,0,0.3,0,0.4,0.1s0.2,0.1,0.3,0.2
			s0.1,0.2,0.2,0.3s0.1,0.3,0.1,0.4c0,0.2,0,0.4-0.1,0.7c-0.1,0.2-0.2,0.5-0.3,0.7s-0.3,0.5-0.4,0.7c-0.2,0.2-0.4,0.4-0.6,0.6
			L48.7,136.2z"/>
		<path d="M59.4,134.6c-0.4,0.1-0.8,0.2-1.3,0.2c-0.6,0-1.1-0.1-1.6-0.3c-0.5-0.2-0.9-0.5-1.2-0.9c-0.3-0.4-0.6-0.8-0.8-1.3
			s-0.3-1.1-0.3-1.6c0-0.5,0.1-1,0.2-1.5c0.1-0.5,0.3-0.9,0.5-1.3s0.5-0.8,0.8-1.1s0.6-0.6,1-0.8c0.4-0.2,0.8-0.4,1.2-0.5
			c0.4-0.1,0.9-0.2,1.4-0.2c0.6,0,1.1,0.1,1.6,0.3s0.9,0.5,1.2,0.9c0.3,0.4,0.6,0.8,0.8,1.3s0.3,1.1,0.3,1.6c0,0.5-0.1,1-0.2,1.4
			c-0.1,0.5-0.3,0.9-0.5,1.3c-0.2,0.4-0.4,0.7-0.7,1.1s-0.6,0.6-0.9,0.8l1.9,2.6h-1.4c-0.2,0-0.4,0-0.5-0.1
			c-0.2-0.1-0.3-0.2-0.4-0.3L59.4,134.6z M56,130.5c0,0.4,0.1,0.8,0.2,1.2c0.1,0.3,0.3,0.6,0.5,0.9s0.4,0.4,0.7,0.6s0.6,0.2,1,0.2
			c0.5,0,0.9-0.1,1.3-0.3c0.4-0.2,0.7-0.5,1-0.8c0.3-0.3,0.5-0.8,0.6-1.3c0.1-0.5,0.2-1,0.2-1.6c0-0.4-0.1-0.8-0.2-1.2
			c-0.1-0.3-0.3-0.6-0.5-0.9c-0.2-0.2-0.4-0.4-0.7-0.6c-0.3-0.1-0.6-0.2-1-0.2c-0.5,0-0.9,0.1-1.3,0.3c-0.4,0.2-0.7,0.5-1,0.8
			c-0.3,0.3-0.5,0.8-0.6,1.3C56.1,129.4,56,129.9,56,130.5z"/>
		<path d="M69.9,128l-0.8,6.7h-0.8c-0.4,0-0.6-0.2-0.6-0.6l0-0.8c-0.3,0.5-0.7,0.8-1.1,1.1c-0.4,0.2-0.8,0.4-1.2,0.4
			c-0.3,0-0.5-0.1-0.7-0.2c-0.2-0.1-0.4-0.3-0.5-0.5s-0.2-0.5-0.3-0.8c-0.1-0.3-0.1-0.7,0-1.1l0.5-4.2h1.6l-0.5,4.2
			c-0.1,0.4,0,0.7,0.1,0.9c0.1,0.2,0.3,0.3,0.5,0.3c0.2,0,0.3,0,0.5-0.1c0.2-0.1,0.4-0.2,0.5-0.4c0.2-0.2,0.3-0.4,0.5-0.6
			c0.1-0.2,0.3-0.5,0.4-0.8l0.4-3.4H69.9z"/>
		<path d="M74.3,133.2c-0.3,0.5-0.6,0.8-1,1.1s-0.8,0.4-1.2,0.4c-0.3,0-0.5,0-0.7-0.1s-0.4-0.2-0.6-0.4c-0.2-0.2-0.3-0.4-0.4-0.7
			c-0.1-0.3-0.1-0.6-0.1-1c0-0.4,0-0.8,0.1-1.2s0.2-0.7,0.4-1.1c0.2-0.3,0.4-0.6,0.7-0.9c0.3-0.3,0.6-0.5,0.9-0.7
			c0.3-0.2,0.7-0.4,1-0.5c0.4-0.1,0.8-0.2,1.2-0.2c0.3,0,0.6,0,0.9,0.1c0.3,0,0.6,0.1,0.9,0.2l-0.8,6.5h-0.8c-0.2,0-0.3-0.1-0.4-0.2
			s-0.1-0.2-0.1-0.4L74.3,133.2z M74.8,129c-0.1,0-0.1,0-0.2,0c-0.1,0-0.1,0-0.2,0c-0.4,0-0.7,0.1-1,0.2c-0.3,0.2-0.6,0.4-0.8,0.7
			c-0.2,0.3-0.4,0.6-0.5,1c-0.1,0.4-0.2,0.8-0.2,1.2c0,0.5,0.1,0.8,0.2,1c0.1,0.2,0.3,0.3,0.6,0.3c0.2,0,0.4-0.1,0.5-0.2
			s0.3-0.3,0.5-0.5s0.3-0.5,0.4-0.8c0.1-0.3,0.2-0.6,0.3-0.9L74.8,129z"/>
		<path d="M76.9,134.6l1.2-9.6h1.6l-1.2,9.6H76.9z"/>
		<path d="M82.2,128l-0.8,6.7h-1.6l0.8-6.7H82.2z M82.6,126c0,0.1,0,0.3-0.1,0.4c-0.1,0.1-0.1,0.2-0.2,0.3s-0.2,0.2-0.3,0.2
			c-0.1,0.1-0.2,0.1-0.4,0.1c-0.1,0-0.2,0-0.4-0.1c-0.1-0.1-0.2-0.1-0.3-0.2s-0.2-0.2-0.2-0.3s-0.1-0.3-0.1-0.4c0-0.1,0-0.3,0.1-0.4
			c0.1-0.1,0.1-0.2,0.2-0.3s0.2-0.2,0.3-0.2c0.1-0.1,0.2-0.1,0.4-0.1c0.1,0,0.3,0,0.4,0.1c0.1,0.1,0.2,0.1,0.3,0.2s0.2,0.2,0.2,0.3
			C82.6,125.7,82.6,125.9,82.6,126z"/>
		<path d="M83.3,133.3c0,0,0-0.1,0-0.1s0-0.1,0-0.2c0-0.1,0-0.2,0-0.3c0-0.1,0-0.3,0.1-0.5l0.4-3h-0.6c-0.1,0-0.1,0-0.2-0.1
			c0-0.1-0.1-0.1,0-0.3l0.1-0.6l1-0.2l0.5-1.8c0-0.1,0.1-0.2,0.1-0.2s0.1-0.1,0.2-0.1h0.9l-0.3,2.1h1.6l-0.1,1.1h-1.6l-0.4,2.9
			c0,0.2,0,0.3-0.1,0.4c0,0.1,0,0.2,0,0.2c0,0.1,0,0.1,0,0.1c0,0,0,0,0,0c0,0.2,0,0.3,0.1,0.4c0.1,0.1,0.2,0.1,0.3,0.1
			c0.1,0,0.2,0,0.2,0c0.1,0,0.1,0,0.2-0.1c0,0,0.1-0.1,0.1-0.1c0,0,0.1,0,0.1,0c0,0,0.1,0,0.1,0c0,0,0,0.1,0.1,0.1l0.3,0.8
			c-0.2,0.2-0.5,0.3-0.8,0.4c-0.3,0.1-0.6,0.1-0.9,0.1c-0.5,0-0.8-0.1-1.1-0.4C83.4,134.1,83.3,133.7,83.3,133.3z"/>
		<path d="M93.7,128l-4.4,8.5c-0.1,0.1-0.1,0.2-0.2,0.2c-0.1,0.1-0.2,0.1-0.3,0.1h-1.2l1.5-2.7l-1.7-6.1h1.3c0.1,0,0.2,0,0.3,0.1
			c0.1,0.1,0.1,0.1,0.1,0.2l0.8,3.4c0,0.2,0.1,0.4,0.1,0.7c0-0.1,0.1-0.2,0.1-0.3s0.1-0.2,0.2-0.3l1.6-3.5c0-0.1,0.1-0.2,0.2-0.2
			c0.1-0.1,0.2-0.1,0.3-0.1H93.7z"/>
		<path d="M99.7,133.2c-0.3,0.5-0.6,0.8-1,1.1s-0.8,0.4-1.2,0.4c-0.3,0-0.5,0-0.7-0.1s-0.4-0.2-0.6-0.4c-0.2-0.2-0.3-0.4-0.4-0.7
			c-0.1-0.3-0.1-0.6-0.1-1c0-0.4,0-0.8,0.1-1.2s0.2-0.7,0.4-1.1c0.2-0.3,0.4-0.6,0.7-0.9c0.3-0.3,0.6-0.5,0.9-0.7
			c0.3-0.2,0.7-0.4,1-0.5c0.4-0.1,0.8-0.2,1.2-0.2c0.3,0,0.6,0,0.9,0.1c0.3,0,0.6,0.1,0.9,0.2l-0.8,6.5h-0.8c-0.2,0-0.3-0.1-0.4-0.2
			s-0.1-0.2-0.1-0.4L99.7,133.2z M100.1,129c-0.1,0-0.1,0-0.2,0c-0.1,0-0.1,0-0.2,0c-0.4,0-0.7,0.1-1,0.2c-0.3,0.2-0.6,0.4-0.8,0.7
			c-0.2,0.3-0.4,0.6-0.5,1c-0.1,0.4-0.2,0.8-0.2,1.2c0,0.5,0.1,0.8,0.2,1c0.1,0.2,0.3,0.3,0.6,0.3c0.2,0,0.4-0.1,0.5-0.2
			s0.3-0.3,0.5-0.5s0.3-0.5,0.4-0.8c0.1-0.3,0.2-0.6,0.3-0.9L100.1,129z"/>
		<path d="M104.4,129.3c0.3-0.5,0.7-0.9,1.1-1.1s0.8-0.4,1.3-0.4c0.3,0,0.5,0.1,0.7,0.2c0.2,0.1,0.4,0.3,0.5,0.5s0.2,0.5,0.3,0.8
			c0.1,0.3,0.1,0.7,0,1.1l-0.5,4.2h-1.6l0.5-4.2c0.1-0.4,0-0.7-0.1-0.9c-0.1-0.2-0.3-0.3-0.5-0.3c-0.2,0-0.4,0.1-0.5,0.2
			c-0.2,0.1-0.4,0.2-0.5,0.4c-0.2,0.2-0.3,0.4-0.5,0.7s-0.3,0.6-0.4,0.9l-0.4,3.3h-1.6l0.8-6.7h0.8c0.2,0,0.3,0,0.4,0.1
			s0.1,0.2,0.1,0.4L104.4,129.3z"/>
		<path d="M115.8,125l-1.2,9.6h-0.8c-0.2,0-0.3-0.1-0.4-0.2c-0.1-0.1-0.1-0.2-0.1-0.4l0.1-0.9c-0.2,0.2-0.3,0.5-0.5,0.6
			s-0.4,0.4-0.6,0.5s-0.4,0.2-0.6,0.3s-0.4,0.1-0.7,0.1c-0.3,0-0.5-0.1-0.8-0.2c-0.2-0.1-0.4-0.3-0.6-0.5c-0.2-0.2-0.3-0.5-0.4-0.8
			c-0.1-0.3-0.1-0.7-0.1-1.1c0-0.4,0-0.7,0.1-1.1c0.1-0.4,0.2-0.7,0.3-1s0.3-0.6,0.5-0.9s0.4-0.5,0.7-0.7c0.2-0.2,0.5-0.4,0.8-0.5
			s0.6-0.2,0.9-0.2c0.3,0,0.6,0.1,0.8,0.2c0.2,0.1,0.5,0.3,0.6,0.4l0.4-3.5H115.8z M113.6,129.5c-0.1-0.2-0.3-0.3-0.5-0.3
			c-0.2-0.1-0.4-0.1-0.6-0.1c-0.3,0-0.5,0.1-0.8,0.3c-0.2,0.2-0.4,0.4-0.6,0.7c-0.2,0.3-0.3,0.6-0.4,1c-0.1,0.4-0.1,0.7-0.1,1.1
			c0,0.5,0.1,0.8,0.2,1s0.4,0.3,0.6,0.3c0.2,0,0.4-0.1,0.5-0.2s0.4-0.3,0.5-0.5c0.2-0.2,0.3-0.5,0.5-0.7c0.1-0.3,0.3-0.6,0.4-0.9
			L113.6,129.5z"/>
		<path d="M120.4,134.6h-1.7l1.1-9.4h1.7L120.4,134.6z"/>
		<path d="M123.9,129.3c0.3-0.5,0.7-0.9,1.1-1.1s0.8-0.4,1.3-0.4c0.3,0,0.5,0.1,0.7,0.2c0.2,0.1,0.4,0.3,0.5,0.5s0.2,0.5,0.3,0.8
			c0.1,0.3,0.1,0.7,0,1.1l-0.5,4.2h-1.6l0.5-4.2c0.1-0.4,0-0.7-0.1-0.9c-0.1-0.2-0.3-0.3-0.5-0.3c-0.2,0-0.4,0.1-0.5,0.2
			c-0.2,0.1-0.4,0.2-0.5,0.4c-0.2,0.2-0.3,0.4-0.5,0.7s-0.3,0.6-0.4,0.9l-0.4,3.3h-1.6l0.8-6.7h0.8c0.2,0,0.3,0,0.4,0.1
			s0.1,0.2,0.1,0.4L123.9,129.3z"/>
		<path d="M129.1,133.3c0,0,0-0.1,0-0.1s0-0.1,0-0.2c0-0.1,0-0.2,0-0.3c0-0.1,0-0.3,0.1-0.5l0.4-3h-0.6c-0.1,0-0.1,0-0.2-0.1
			c0-0.1-0.1-0.1,0-0.3l0.1-0.6l1-0.2l0.5-1.8c0-0.1,0.1-0.2,0.1-0.2s0.1-0.1,0.2-0.1h0.9l-0.3,2.1h1.6l-0.1,1.1h-1.6l-0.4,2.9
			c0,0.2,0,0.3-0.1,0.4c0,0.1,0,0.2,0,0.2c0,0.1,0,0.1,0,0.1c0,0,0,0,0,0c0,0.2,0,0.3,0.1,0.4c0.1,0.1,0.2,0.1,0.3,0.1
			c0.1,0,0.2,0,0.2,0c0.1,0,0.1,0,0.2-0.1c0,0,0.1-0.1,0.1-0.1c0,0,0.1,0,0.1,0c0,0,0.1,0,0.1,0c0,0,0,0.1,0.1,0.1l0.3,0.8
			c-0.2,0.2-0.5,0.3-0.8,0.4c-0.3,0.1-0.6,0.1-0.9,0.1c-0.5,0-0.8-0.1-1.1-0.4C129.2,134.1,129.1,133.7,129.1,133.3z"/>
		<path d="M134.5,131.9c0,1,0.4,1.6,1.3,1.6c0.2,0,0.4,0,0.5-0.1s0.3-0.1,0.4-0.1s0.2-0.1,0.3-0.2c0.1-0.1,0.2-0.1,0.2-0.2
			c0.1-0.1,0.2-0.1,0.2-0.1c0.1,0,0.2-0.1,0.2-0.1c0.1,0,0.1,0,0.2,0c0,0,0.1,0.1,0.1,0.1l0.4,0.5c-0.2,0.2-0.5,0.4-0.7,0.6
			c-0.2,0.2-0.4,0.3-0.7,0.4c-0.2,0.1-0.5,0.2-0.7,0.2s-0.5,0.1-0.8,0.1c-0.4,0-0.7-0.1-1.1-0.2s-0.6-0.3-0.8-0.6s-0.4-0.5-0.5-0.9
			c-0.1-0.3-0.2-0.7-0.2-1.1c0-0.3,0-0.7,0.1-1c0.1-0.3,0.2-0.7,0.3-1s0.3-0.6,0.5-0.8c0.2-0.3,0.4-0.5,0.7-0.7s0.5-0.3,0.9-0.4
			s0.6-0.2,1-0.2c0.3,0,0.6,0,0.9,0.1c0.3,0.1,0.5,0.2,0.7,0.4c0.2,0.2,0.3,0.3,0.4,0.5c0.1,0.2,0.1,0.4,0.1,0.6
			c0,0.3-0.1,0.6-0.2,0.8c-0.1,0.2-0.3,0.5-0.6,0.7c-0.3,0.2-0.7,0.4-1.2,0.5C136,131.6,135.3,131.7,134.5,131.9L134.5,131.9z
			 M136.4,129c-0.2,0-0.4,0-0.6,0.1c-0.2,0.1-0.4,0.2-0.5,0.4c-0.1,0.2-0.3,0.4-0.4,0.6s-0.2,0.5-0.3,0.7c0.5-0.1,1-0.2,1.3-0.2
			c0.3-0.1,0.6-0.2,0.8-0.3c0.2-0.1,0.3-0.2,0.4-0.3c0.1-0.1,0.1-0.2,0.1-0.4c0-0.1,0-0.1,0-0.2s-0.1-0.1-0.1-0.2
			c-0.1-0.1-0.1-0.1-0.2-0.1C136.6,129,136.5,129,136.4,129z"/>
		<path d="M145.4,128.2l-0.1,0.5c0,0.2-0.1,0.3-0.3,0.4l-0.7,0.2c0,0.1,0,0.2,0,0.3s0,0.2,0,0.3c0,0.2,0,0.4-0.1,0.5
			c0,0.2-0.1,0.3-0.2,0.4c-0.1,0.1-0.1,0.3-0.2,0.4c-0.1,0.1-0.1,0.2-0.2,0.4s-0.1,0.3-0.2,0.4c0,0.1-0.1,0.3-0.1,0.5
			c0,0.2,0,0.3,0.1,0.5s0.2,0.3,0.2,0.5c0.1,0.2,0.2,0.3,0.2,0.5c0.1,0.2,0.1,0.4,0.1,0.6c0,0.3-0.1,0.6-0.2,0.9
			c-0.1,0.3-0.4,0.6-0.6,0.8c-0.3,0.2-0.6,0.4-1,0.5c-0.4,0.1-0.8,0.2-1.3,0.2c-0.4,0-0.8,0-1.1-0.1c-0.3-0.1-0.6-0.2-0.8-0.4
			c-0.2-0.2-0.4-0.3-0.5-0.5c-0.1-0.2-0.2-0.4-0.2-0.7c0-0.3,0.1-0.6,0.2-0.8s0.3-0.4,0.5-0.6s0.5-0.3,0.7-0.4
			c0.3-0.1,0.6-0.2,0.9-0.2c0.3,0,0.6-0.1,0.9,0c0.3,0,0.6,0,0.8,0.1c0-0.1-0.1-0.3-0.1-0.4c0-0.3,0.1-0.5,0.2-0.8
			c-0.2,0.1-0.4,0.2-0.6,0.3s-0.5,0.1-0.8,0.1c-0.3,0-0.5,0-0.7-0.1c-0.2-0.1-0.4-0.2-0.6-0.4c-0.2-0.2-0.3-0.4-0.4-0.6
			s-0.2-0.5-0.2-0.9c0-0.3,0.1-0.6,0.2-1s0.3-0.6,0.5-0.8s0.5-0.4,0.9-0.6c0.4-0.1,0.8-0.2,1.2-0.2c0.2,0,0.5,0,0.7,0.1
			c0.2,0.1,0.4,0.1,0.6,0.3H145.4z M141.1,135.8c0.2,0,0.5,0,0.7-0.1c0.2-0.1,0.4-0.1,0.5-0.3s0.3-0.2,0.3-0.4
			c0.1-0.1,0.1-0.3,0.1-0.5c0-0.1,0-0.1,0-0.2c0-0.1,0-0.1,0-0.2c-0.5-0.1-0.9-0.1-1.3-0.1s-0.7,0.1-0.9,0.1
			c-0.2,0.1-0.4,0.2-0.5,0.3c-0.1,0.1-0.2,0.3-0.2,0.4c0,0.3,0.1,0.5,0.3,0.6C140.4,135.8,140.7,135.8,141.1,135.8z M141.7,131.5
			c0.2,0,0.4,0,0.5-0.1c0.1-0.1,0.3-0.2,0.4-0.4c0.1-0.1,0.2-0.3,0.2-0.5s0.1-0.4,0.1-0.6c0-0.3-0.1-0.6-0.2-0.7s-0.4-0.3-0.7-0.3
			c-0.2,0-0.4,0-0.5,0.1c-0.1,0.1-0.3,0.2-0.4,0.3c-0.1,0.1-0.2,0.3-0.2,0.5s-0.1,0.4-0.1,0.6c0,0.3,0.1,0.6,0.2,0.8
			C141.2,131.4,141.4,131.5,141.7,131.5z"/>
		<path d="M147.4,129.6c0.2-0.3,0.3-0.6,0.5-0.8c0.2-0.2,0.4-0.4,0.6-0.6c0.2-0.1,0.4-0.2,0.6-0.2c0.2,0,0.4,0,0.7,0.1l-0.3,1.5
			c-0.5-0.2-1-0.2-1.4,0.2c-0.4,0.3-0.7,1-0.9,1.9l-0.4,3h-1.6l0.8-6.7h0.8c0.2,0,0.3,0,0.4,0.1s0.1,0.2,0.1,0.4L147.4,129.6z"/>
		<path d="M152.1,128l-0.8,6.7h-1.6l0.8-6.7H152.1z M152.5,126c0,0.1,0,0.3-0.1,0.4s-0.1,0.2-0.2,0.3s-0.2,0.2-0.3,0.2
			c-0.1,0.1-0.2,0.1-0.4,0.1c-0.1,0-0.2,0-0.4-0.1c-0.1-0.1-0.2-0.1-0.3-0.2s-0.2-0.2-0.2-0.3s-0.1-0.3-0.1-0.4c0-0.1,0-0.3,0.1-0.4
			c0.1-0.1,0.1-0.2,0.2-0.3s0.2-0.2,0.3-0.2c0.1-0.1,0.2-0.1,0.4-0.1c0.1,0,0.3,0,0.4,0.1c0.1,0.1,0.2,0.1,0.3,0.2s0.2,0.2,0.2,0.3
			C152.5,125.7,152.5,125.9,152.5,126z"/>
		<path d="M153.2,133.3c0,0,0-0.1,0-0.1s0-0.1,0-0.2c0-0.1,0-0.2,0-0.3c0-0.1,0-0.3,0.1-0.5l0.4-3H153c-0.1,0-0.1,0-0.2-0.1
			c0-0.1-0.1-0.1,0-0.3l0.1-0.6l1-0.2l0.5-1.8c0-0.1,0.1-0.2,0.1-0.2s0.1-0.1,0.2-0.1h0.9l-0.3,2.1h1.6l-0.1,1.1h-1.6l-0.4,2.9
			c0,0.2,0,0.3-0.1,0.4c0,0.1,0,0.2,0,0.2c0,0.1,0,0.1,0,0.1c0,0,0,0,0,0c0,0.2,0,0.3,0.1,0.4s0.2,0.1,0.3,0.1c0.1,0,0.2,0,0.2,0
			c0.1,0,0.1,0,0.2-0.1c0,0,0.1-0.1,0.1-0.1c0,0,0.1,0,0.1,0c0,0,0.1,0,0.1,0c0,0,0,0.1,0.1,0.1l0.3,0.8c-0.2,0.2-0.5,0.3-0.8,0.4
			c-0.3,0.1-0.6,0.1-0.9,0.1c-0.5,0-0.8-0.1-1.1-0.4C153.3,134.1,153.2,133.7,153.2,133.3z"/>
		<path d="M163.6,128l-4.4,8.5c-0.1,0.1-0.1,0.2-0.2,0.2c-0.1,0.1-0.2,0.1-0.3,0.1h-1.2l1.5-2.7l-1.7-6.1h1.3c0.1,0,0.2,0,0.3,0.1
			c0.1,0.1,0.1,0.1,0.1,0.2l0.8,3.4c0,0.2,0.1,0.4,0.1,0.7c0-0.1,0.1-0.2,0.1-0.3s0.1-0.2,0.2-0.3l1.6-3.5c0-0.1,0.1-0.2,0.2-0.2
			c0.1-0.1,0.2-0.1,0.3-0.1H163.6z"/>
		<path d="M162.9,136.2c-0.1-0.1-0.1-0.1-0.1-0.2c0-0.1,0-0.1,0.1-0.2c0.1-0.1,0.2-0.2,0.3-0.3c0.1-0.1,0.2-0.2,0.3-0.4
			s0.2-0.3,0.2-0.5c-0.1,0-0.3,0-0.4-0.1s-0.2-0.1-0.3-0.2c-0.1-0.1-0.1-0.2-0.2-0.3c0-0.1-0.1-0.2-0.1-0.4c0-0.1,0-0.2,0.1-0.3
			c0-0.1,0.1-0.2,0.2-0.3s0.2-0.1,0.3-0.2c0.1,0,0.2-0.1,0.4-0.1c0.2,0,0.3,0,0.4,0.1c0.1,0.1,0.2,0.1,0.3,0.2
			c0.1,0.1,0.1,0.2,0.2,0.3s0.1,0.3,0.1,0.4c0,0.2,0,0.4-0.1,0.7c-0.1,0.2-0.2,0.5-0.3,0.7s-0.3,0.5-0.4,0.7
			c-0.2,0.2-0.4,0.4-0.6,0.6L162.9,136.2z"/>
		<path d="M174.1,126.9c-0.1,0.1-0.1,0.2-0.2,0.2c-0.1,0-0.1,0.1-0.2,0.1c-0.1,0-0.2,0-0.3-0.1s-0.2-0.1-0.3-0.2
			c-0.1-0.1-0.3-0.2-0.4-0.2c-0.2-0.1-0.4-0.1-0.6-0.1c-0.2,0-0.4,0-0.6,0.1c-0.2,0.1-0.3,0.2-0.5,0.3s-0.2,0.3-0.3,0.4
			s-0.1,0.3-0.1,0.5c0,0.2,0.1,0.4,0.2,0.5s0.2,0.2,0.4,0.3c0.2,0.1,0.4,0.2,0.6,0.3s0.4,0.2,0.6,0.2c0.2,0.1,0.4,0.2,0.6,0.3
			s0.4,0.3,0.6,0.4c0.2,0.2,0.3,0.4,0.4,0.6s0.2,0.5,0.2,0.8c0,0.5-0.1,0.9-0.2,1.3c-0.2,0.4-0.4,0.8-0.7,1.1s-0.7,0.5-1.1,0.7
			c-0.4,0.2-0.9,0.3-1.4,0.3c-0.3,0-0.5,0-0.8-0.1c-0.3-0.1-0.5-0.1-0.7-0.3s-0.4-0.2-0.6-0.4c-0.2-0.2-0.4-0.3-0.5-0.5l0.6-0.8
			c0-0.1,0.1-0.1,0.2-0.1c0.1,0,0.1-0.1,0.2-0.1c0.1,0,0.1,0,0.2,0.1c0.1,0,0.1,0.1,0.2,0.2c0.1,0.1,0.2,0.1,0.3,0.2
			c0.1,0.1,0.2,0.1,0.3,0.2c0.1,0.1,0.3,0.1,0.4,0.2c0.2,0,0.3,0.1,0.5,0.1c0.5,0,0.9-0.1,1.2-0.4s0.4-0.7,0.4-1.1
			c0-0.2,0-0.4-0.1-0.5c-0.1-0.1-0.2-0.3-0.4-0.3s-0.4-0.2-0.6-0.3s-0.4-0.1-0.6-0.2s-0.4-0.2-0.6-0.3c-0.2-0.1-0.4-0.2-0.6-0.4
			c-0.2-0.2-0.3-0.4-0.4-0.6c-0.1-0.2-0.1-0.5-0.1-0.9c0-0.4,0.1-0.8,0.2-1.2s0.4-0.7,0.6-1c0.3-0.3,0.6-0.5,1-0.7s0.8-0.3,1.3-0.3
			c0.3,0,0.5,0,0.7,0.1c0.2,0.1,0.5,0.1,0.7,0.2s0.4,0.2,0.6,0.3s0.3,0.3,0.4,0.4L174.1,126.9z"/>
		<path d="M177.1,128l-0.8,6.7h-1.6l0.8-6.7H177.1z M177.5,126c0,0.1,0,0.3-0.1,0.4s-0.1,0.2-0.2,0.3s-0.2,0.2-0.3,0.2
			c-0.1,0.1-0.2,0.1-0.4,0.1c-0.1,0-0.2,0-0.4-0.1c-0.1-0.1-0.2-0.1-0.3-0.2s-0.2-0.2-0.2-0.3s-0.1-0.3-0.1-0.4c0-0.1,0-0.3,0.1-0.4
			c0.1-0.1,0.1-0.2,0.2-0.3s0.2-0.2,0.3-0.2c0.1-0.1,0.2-0.1,0.4-0.1c0.1,0,0.3,0,0.4,0.1c0.1,0.1,0.2,0.1,0.3,0.2s0.2,0.2,0.2,0.3
			C177.5,125.7,177.5,125.9,177.5,126z"/>
		<path d="M179.7,129.3c0.3-0.5,0.7-0.9,1.1-1.1c0.4-0.2,0.8-0.4,1.3-0.4c0.3,0,0.5,0.1,0.7,0.2s0.4,0.3,0.5,0.5s0.2,0.5,0.3,0.8
			c0.1,0.3,0.1,0.7,0,1.1l-0.5,4.2h-1.6l0.5-4.2c0.1-0.4,0-0.7-0.1-0.9c-0.1-0.2-0.3-0.3-0.5-0.3c-0.2,0-0.4,0.1-0.5,0.2
			c-0.2,0.1-0.4,0.2-0.5,0.4c-0.2,0.2-0.3,0.4-0.5,0.7c-0.1,0.3-0.3,0.6-0.4,0.9l-0.4,3.3h-1.6l0.8-6.7h0.8c0.2,0,0.3,0,0.4,0.1
			c0.1,0.1,0.1,0.2,0.1,0.4L179.7,129.3z"/>
		<path d="M188.9,134c-0.2,0.2-0.4,0.3-0.6,0.4c-0.2,0.1-0.4,0.2-0.7,0.2c-0.2,0-0.5,0.1-0.7,0.1c-0.4,0-0.7-0.1-1-0.2
			c-0.3-0.1-0.6-0.3-0.8-0.6s-0.4-0.5-0.5-0.9c-0.1-0.3-0.2-0.7-0.2-1.1c0-0.4,0-0.7,0.1-1.1c0.1-0.3,0.2-0.7,0.3-1
			c0.1-0.3,0.3-0.6,0.5-0.8c0.2-0.3,0.4-0.5,0.7-0.6c0.3-0.2,0.5-0.3,0.8-0.4s0.6-0.2,1-0.2c0.4,0,0.8,0.1,1.1,0.2
			c0.3,0.2,0.6,0.4,0.8,0.7l-0.5,0.6c0,0-0.1,0.1-0.1,0.1c-0.1,0-0.1,0-0.2,0c-0.1,0-0.1,0-0.2-0.1c-0.1,0-0.1-0.1-0.2-0.1
			c-0.1-0.1-0.2-0.1-0.3-0.1c-0.1,0-0.3-0.1-0.5-0.1c-0.2,0-0.5,0.1-0.7,0.2c-0.2,0.1-0.4,0.3-0.6,0.6c-0.2,0.2-0.3,0.5-0.4,0.9
			c-0.1,0.3-0.2,0.7-0.2,1.1c0,0.5,0.1,0.9,0.3,1.1c0.2,0.3,0.5,0.4,0.9,0.4c0.2,0,0.3,0,0.4-0.1c0.1,0,0.2-0.1,0.3-0.1
			c0.1,0,0.2-0.1,0.3-0.2c0.1-0.1,0.1-0.1,0.2-0.2s0.1-0.1,0.2-0.1c0.1,0,0.1-0.1,0.2-0.1c0.1,0,0.1,0,0.2,0c0,0,0.1,0.1,0.1,0.1
			l0.4,0.5C189.3,133.7,189.1,133.9,188.9,134z"/>
		<path d="M191.5,131.9c0,1,0.4,1.6,1.3,1.6c0.2,0,0.4,0,0.5-0.1s0.3-0.1,0.4-0.1s0.2-0.1,0.3-0.2c0.1-0.1,0.2-0.1,0.2-0.2
			c0.1-0.1,0.2-0.1,0.2-0.1c0.1,0,0.2-0.1,0.2-0.1c0.1,0,0.1,0,0.2,0c0,0,0.1,0.1,0.1,0.1l0.4,0.5c-0.2,0.2-0.5,0.4-0.7,0.6
			c-0.2,0.2-0.4,0.3-0.7,0.4c-0.2,0.1-0.5,0.2-0.7,0.2s-0.5,0.1-0.8,0.1c-0.4,0-0.7-0.1-1.1-0.2s-0.6-0.3-0.8-0.6s-0.4-0.5-0.5-0.9
			c-0.1-0.3-0.2-0.7-0.2-1.1c0-0.3,0-0.7,0.1-1c0.1-0.3,0.2-0.7,0.3-1s0.3-0.6,0.5-0.8c0.2-0.3,0.4-0.5,0.7-0.7s0.5-0.3,0.9-0.4
			s0.6-0.2,1-0.2c0.3,0,0.6,0,0.9,0.1c0.3,0.1,0.5,0.2,0.7,0.4c0.2,0.2,0.3,0.3,0.4,0.5c0.1,0.2,0.1,0.4,0.1,0.6
			c0,0.3-0.1,0.6-0.2,0.8c-0.1,0.2-0.3,0.5-0.6,0.7c-0.3,0.2-0.7,0.4-1.2,0.5C193,131.6,192.3,131.7,191.5,131.9L191.5,131.9z
			 M193.4,129c-0.2,0-0.4,0-0.6,0.1c-0.2,0.1-0.4,0.2-0.5,0.4c-0.1,0.2-0.3,0.4-0.4,0.6s-0.2,0.5-0.3,0.7c0.5-0.1,1-0.2,1.3-0.2
			c0.3-0.1,0.6-0.2,0.8-0.3c0.2-0.1,0.3-0.2,0.4-0.3c0.1-0.1,0.1-0.2,0.1-0.4c0-0.1,0-0.1,0-0.2s-0.1-0.1-0.1-0.2
			c-0.1-0.1-0.1-0.1-0.2-0.1C193.6,129,193.5,129,193.4,129z"/>
		<path d="M204.6,133.5l-0.1,1.2h-4.8l0.1-1.2h1.7l0.7-5.6c0-0.1,0-0.2,0-0.3c0-0.1,0-0.2,0.1-0.3l-1.3,1.1
			c-0.1,0.1-0.2,0.1-0.2,0.1c-0.1,0-0.1,0-0.2,0c-0.1,0-0.1,0-0.2-0.1c0,0-0.1-0.1-0.1-0.1l-0.4-0.7l2.9-2.4h1.3l-1,8.2H204.6z"/>
		<path d="M209.8,131c0.1-0.1,0.1-0.2,0.2-0.3c0.1-0.1,0.1-0.2,0.2-0.3c-0.2,0.1-0.4,0.2-0.7,0.3c-0.2,0.1-0.5,0.1-0.7,0.1
			c-0.3,0-0.5,0-0.8-0.1s-0.5-0.2-0.7-0.4c-0.2-0.2-0.3-0.4-0.5-0.7c-0.1-0.3-0.2-0.6-0.2-1c0-0.5,0.1-0.9,0.3-1.3s0.4-0.8,0.7-1.1
			s0.7-0.5,1.1-0.7c0.4-0.2,0.9-0.3,1.3-0.3c0.4,0,0.8,0.1,1.1,0.2s0.6,0.3,0.8,0.5c0.2,0.2,0.4,0.5,0.5,0.8
			c0.1,0.3,0.2,0.7,0.2,1.1c0,0.3,0,0.6-0.1,0.9s-0.2,0.6-0.3,0.8c-0.1,0.3-0.3,0.5-0.4,0.8c-0.2,0.3-0.4,0.5-0.6,0.8l-2.3,3.1
			c-0.1,0.1-0.2,0.2-0.3,0.3c-0.1,0.1-0.3,0.1-0.5,0.1h-1.4L209.8,131z M208.3,128.4c0,0.4,0.1,0.8,0.3,1c0.2,0.2,0.5,0.3,0.9,0.3
			c0.3,0,0.5,0,0.7-0.1c0.2-0.1,0.4-0.2,0.5-0.4c0.1-0.2,0.3-0.4,0.3-0.6c0.1-0.2,0.1-0.5,0.1-0.7c0-0.4-0.1-0.8-0.3-1
			c-0.2-0.2-0.5-0.4-0.9-0.4c-0.2,0-0.5,0-0.7,0.1c-0.2,0.1-0.4,0.2-0.5,0.4c-0.1,0.2-0.3,0.4-0.3,0.6
			C208.3,127.8,208.3,128.1,208.3,128.4z"/>
		<path d="M220.5,125.2l-0.1,0.7c0,0.2-0.1,0.4-0.1,0.5s-0.1,0.2-0.2,0.3l-4.1,7.4c-0.1,0.1-0.2,0.3-0.3,0.4s-0.3,0.2-0.5,0.2H214
			l4.2-7.2c0.1-0.1,0.2-0.3,0.3-0.4s0.2-0.2,0.3-0.3h-4.1c-0.1,0-0.2,0-0.2-0.1c-0.1-0.1-0.1-0.2-0.1-0.2l0.1-1H220.5z"/>
		<path d="M226.5,133.5l-0.1,1.2h-4.8l0.1-1.2h1.7l0.7-5.6c0-0.1,0-0.2,0-0.3c0-0.1,0-0.2,0.1-0.3l-1.3,1.1
			c-0.1,0.1-0.2,0.1-0.2,0.1c-0.1,0-0.1,0-0.2,0c-0.1,0-0.1,0-0.2-0.1c0,0-0.1-0.1-0.1-0.1l-0.4-0.7l2.9-2.4h1.3l-1,8.2H226.5z"/>
	</g>
	<g>
		<path class="st2" d="M253.5,76.9c2.1-8.4,6.5-22.5,5.3-29.2c-17.5-13.9-43.3-21.1-73.8-24.2c-44.6,5.9-91.9,4.9-130.2-0.1
			c32,6.1,84.7,13.9,123.2,8.6C218.4,37.7,245.5,54.6,253.5,76.9z"/>
		<path class="st2" d="M61.3,20.3C101.9,2.7,149.1,9.4,185,23.5c-89.9-48.6-131.9,0.8-181.3,1c-0.8,13.7-0.1,24,2.7,29.9
			C17.1,44.7,33.4,33.7,61.3,20.3z"/>
	</g>
	<path class="st3" d="M251.6,74.5c2.1-8.4,6.5-22.5,5.3-29.2c-17.5-13.9-43.3-21.1-73.8-24.2c-44.6,5.9-91.9,4.9-130.2-0.1
		c32,6.1,84.7,13.9,123.2,8.6C216.4,35.4,243.6,52.2,251.6,74.5z"/>
	<path class="st3" d="M59.4,20.8C99.9,3.2,147.1,9.9,183,24C93.1-24.6,51.2,24.8,1.7,25C0.9,38.7,1.7,49,4.5,54.9
		C15.2,45.1,31.5,34.2,59.4,20.8z"/>
</g>
</svg>
