<?xml version="1.0" encoding="utf-8"?>
<!-- Generator: Adobe Illustrator 22.0.1, SVG Export Plug-In . SVG Version: 6.00 Build 0)  -->
<svg version="1.1" id="Layer_1" xmlns="http://www.w3.org/2000/svg" xmlns:xlink="http://www.w3.org/1999/xlink" x="0px" y="0px"
	 viewBox="0 0 260.4 204.4" style="enable-background:new 0 0 260.4 204.4;" xml:space="preserve">
<style type="text/css">
	.st0{fill:#FFCD2B;}
	.st1{fill:#FFFFFF;}
	.st2{fill:#ED1C24;}
	.st3{fill:#E31C40;}
	.st4{font-family:'ArialMT';}
	.st5{font-size:7.6677px;}
	.st6{font-family:'TimesNewRomanPSMT';}
	.st7{fill:#C8032B;}
	.st8{fill:#A6ACB3;}
</style>
<g>
	<g>
		<path class="st0" d="M30.9,118.3h-2.4c-0.3,0-0.5-0.1-0.7-0.2s-0.3-0.3-0.4-0.5l-1.3-3.5h-7l-1.3,3.5c-0.1,0.2-0.2,0.3-0.4,0.5
			s-0.4,0.2-0.7,0.2h-2.5l6.7-16.9h3.2L30.9,118.3z M25.3,111.9l-2.1-5.6c-0.1-0.3-0.2-0.5-0.3-0.9s-0.2-0.7-0.3-1.1
			c-0.1,0.4-0.2,0.8-0.3,1.1c-0.1,0.3-0.2,0.7-0.3,0.9l-2.1,5.6H25.3z"/>
		<path class="st0" d="M38.4,115.8c0.6,0,1.2-0.1,1.6-0.3s0.9-0.5,1.2-0.9s0.6-0.8,0.8-1.3s0.3-1.1,0.3-1.8v-10.2h3.2v10.2
			c0,1-0.2,1.9-0.5,2.8s-0.8,1.6-1.4,2.2s-1.3,1.1-2.2,1.5c-0.9,0.3-1.8,0.5-2.9,0.5c-1.1,0-2.1-0.2-2.9-0.5
			c-0.9-0.3-1.6-0.8-2.2-1.5c-0.6-0.6-1.1-1.4-1.4-2.2c-0.3-0.9-0.5-1.8-0.5-2.8v-10.2h3.2v10.1c0,0.6,0.1,1.2,0.3,1.8
			s0.4,1,0.8,1.3c0.3,0.4,0.7,0.7,1.2,0.9C37.3,115.7,37.8,115.8,38.4,115.8z"/>
		<path class="st0" d="M60.3,104h-5.1v14.4H52V104h-5.1v-2.6h13.4C60.3,101.4,60.3,104,60.3,104z"/>
		<path class="st0" d="M77.5,109.9c0,1.2-0.2,2.4-0.6,3.5s-1,2-1.7,2.7c-0.8,0.8-1.7,1.4-2.7,1.8c-1.1,0.4-2.2,0.7-3.5,0.7
			s-2.4-0.2-3.5-0.7c-1.1-0.4-2-1-2.7-1.8c-0.8-0.8-1.3-1.7-1.8-2.7c-0.4-1.1-0.6-2.2-0.6-3.5s0.2-2.4,0.6-3.5c0.4-1.1,1-2,1.8-2.7
			c0.8-0.8,1.7-1.4,2.7-1.8c1.1-0.4,2.2-0.7,3.5-0.7c0.9,0,1.7,0.1,2.4,0.3c0.8,0.2,1.5,0.5,2.1,0.8c0.6,0.4,1.2,0.8,1.7,1.3
			s0.9,1.1,1.3,1.7s0.6,1.3,0.8,2.1S77.5,109,77.5,109.9z M74.3,109.9c0-0.9-0.1-1.8-0.4-2.5s-0.6-1.4-1.1-1.9s-1-0.9-1.7-1.2
			c-0.7-0.3-1.4-0.4-2.2-0.4c-0.8,0-1.6,0.1-2.2,0.4c-0.7,0.3-1.2,0.7-1.7,1.2s-0.8,1.1-1.1,1.9s-0.4,1.6-0.4,2.5s0.1,1.8,0.4,2.5
			s0.6,1.4,1.1,1.9s1,0.9,1.7,1.2c0.7,0.3,1.4,0.4,2.2,0.4c0.8,0,1.6-0.1,2.2-0.4c0.7-0.3,1.2-0.7,1.7-1.2s0.8-1.1,1.1-1.9
			S74.3,110.8,74.3,109.9z"/>
		<path class="st0" d="M85.5,101.4c1.1,0,2.1,0.1,2.8,0.3c0.8,0.2,1.4,0.5,1.9,0.9s0.9,0.9,1.1,1.4c0.2,0.6,0.4,1.2,0.4,1.9
			c0,0.4-0.1,0.8-0.2,1.1s-0.3,0.7-0.5,1s-0.6,0.6-0.9,0.9c-0.4,0.3-0.8,0.5-1.4,0.7c2.3,0.5,3.5,1.8,3.5,3.8c0,0.7-0.1,1.4-0.4,2
			s-0.7,1.1-1.2,1.6c-0.5,0.4-1.2,0.8-1.9,1c-0.8,0.3-1.6,0.4-2.6,0.4h-6.4v-16.9h5.8V101.4z M82.9,103.8v4.9h2.5
			c1.1,0,1.9-0.2,2.4-0.6c0.6-0.4,0.8-1,0.8-1.9s-0.3-1.5-0.8-1.9s-1.3-0.6-2.3-0.6L82.9,103.8L82.9,103.8z M86.1,115.9
			c0.6,0,1.1-0.1,1.5-0.2s0.7-0.3,1-0.6c0.2-0.2,0.4-0.5,0.5-0.8s0.2-0.6,0.2-1s-0.1-0.7-0.2-1s-0.3-0.5-0.6-0.8s-0.6-0.4-1-0.5
			s-0.9-0.2-1.4-0.2h-3.2v5L86.1,115.9L86.1,115.9z"/>
		<path class="st0" d="M110.7,109.9c0,1.2-0.2,2.4-0.6,3.5s-1,2-1.7,2.7c-0.8,0.8-1.7,1.4-2.7,1.8c-1.1,0.4-2.2,0.7-3.5,0.7
			s-2.4-0.2-3.5-0.7c-1.1-0.4-2-1-2.7-1.8c-0.8-0.8-1.3-1.7-1.8-2.7c-0.4-1.1-0.6-2.2-0.6-3.5s0.2-2.4,0.6-3.5s1-2,1.8-2.7
			c0.8-0.8,1.7-1.4,2.7-1.8c1.1-0.4,2.2-0.7,3.5-0.7c0.9,0,1.7,0.1,2.4,0.3c0.8,0.2,1.5,0.5,2.1,0.8c0.6,0.4,1.2,0.8,1.7,1.3
			s0.9,1.1,1.3,1.7s0.6,1.3,0.8,2.1S110.7,109,110.7,109.9z M107.5,109.9c0-0.9-0.1-1.8-0.4-2.5s-0.6-1.4-1.1-1.9s-1-0.9-1.7-1.2
			c-0.7-0.3-1.4-0.4-2.2-0.4c-0.8,0-1.6,0.1-2.2,0.4c-0.7,0.3-1.2,0.7-1.7,1.2s-0.8,1.1-1.1,1.9s-0.4,1.6-0.4,2.5s0.1,1.8,0.4,2.5
			s0.6,1.4,1.1,1.9s1,0.9,1.7,1.2c0.7,0.3,1.4,0.4,2.2,0.4c0.8,0,1.6-0.1,2.2-0.4c0.7-0.3,1.2-0.7,1.7-1.2s0.8-1.1,1.1-1.9
			C107.4,111.6,107.5,110.8,107.5,109.9z"/>
		<path class="st0" d="M128,109.9c0,1.2-0.2,2.4-0.6,3.4s-1,1.9-1.7,2.7c-0.8,0.8-1.7,1.3-2.7,1.7c-1.1,0.4-2.2,0.6-3.5,0.6H113
			v-16.9h6.5c1.3,0,2.5,0.2,3.5,0.6c1.1,0.4,2,1,2.7,1.7c0.8,0.7,1.3,1.6,1.7,2.7C127.8,107.5,128,108.6,128,109.9z M124.7,109.9
			c0-0.9-0.1-1.8-0.4-2.5s-0.6-1.4-1.1-1.9s-1-0.9-1.7-1.2c-0.7-0.3-1.4-0.4-2.2-0.4H116v11.9h3.3c0.8,0,1.6-0.1,2.2-0.4
			c0.7-0.3,1.2-0.7,1.7-1.2s0.8-1.1,1.1-1.9C124.6,111.6,124.7,110.8,124.7,109.9z"/>
		<path class="st0" d="M136.4,111.8v6.6h-3.1v-6.6l-6.2-10.4h2.8c0.3,0,0.5,0.1,0.7,0.2s0.3,0.3,0.4,0.5l3.1,5.7
			c0.2,0.3,0.3,0.7,0.5,0.9s0.3,0.6,0.4,0.9c0.1-0.3,0.2-0.6,0.4-0.9c0.1-0.3,0.3-0.6,0.5-0.9l3.1-5.7c0.1-0.2,0.2-0.3,0.4-0.5
			c0.2-0.1,0.4-0.2,0.7-0.2h2.8L136.4,111.8z"/>
		<path class="st0" d="M161.8,110.3v6.4c-0.8,0.6-1.7,1.1-2.7,1.4s-2,0.5-3.1,0.5c-1.4,0-2.6-0.2-3.7-0.6c-1.1-0.4-2-1-2.8-1.8
			s-1.4-1.7-1.8-2.7c-0.4-1.1-0.6-2.2-0.6-3.5s0.2-2.4,0.6-3.5c0.4-1.1,1-2,1.7-2.7c0.7-0.8,1.6-1.3,2.7-1.8
			c1.1-0.4,2.3-0.6,3.6-0.6c0.7,0,1.3,0,1.9,0.1s1.1,0.2,1.6,0.4c0.5,0.2,0.9,0.4,1.3,0.7c0.4,0.3,0.8,0.6,1.2,0.9l-0.6,1
			c-0.1,0.2-0.2,0.3-0.4,0.3s-0.3,0-0.5-0.1s-0.4-0.2-0.6-0.4c-0.2-0.2-0.5-0.3-0.9-0.5c-0.3-0.1-0.8-0.3-1.2-0.4s-1-0.2-1.7-0.2
			c-0.9,0-1.8,0.2-2.6,0.5s-1.4,0.8-2,1.3c-0.5,0.6-1,1.3-1.2,2.1s-0.4,1.7-0.4,2.7c0,1.1,0.2,2,0.5,2.8s0.7,1.5,1.3,2.1
			s1.2,1,2,1.3s1.7,0.5,2.7,0.5c0.8,0,1.5-0.1,2.1-0.3c0.6-0.2,1.2-0.4,1.8-0.7V112h-2.6c-0.1,0-0.3,0-0.4-0.1s-0.1-0.2-0.1-0.3
			v-1.3C156.9,110.3,161.8,110.3,161.8,110.3z"/>
		<path class="st0" d="M177.1,118.3h-2c-0.4,0-0.7-0.2-0.9-0.5l-4.4-6c-0.1-0.2-0.3-0.3-0.4-0.4s-0.4-0.1-0.7-0.1H167v7h-2.3v-16.8
			h4.7c1.1,0,2,0.1,2.8,0.3c0.8,0.2,1.4,0.5,1.9,0.9s0.9,0.9,1.1,1.5c0.2,0.6,0.4,1.2,0.4,1.9c0,0.6-0.1,1.1-0.3,1.7s-0.5,1-0.8,1.4
			c-0.4,0.4-0.8,0.8-1.3,1c-0.5,0.3-1.1,0.5-1.7,0.7c0.3,0.2,0.5,0.4,0.8,0.7L177.1,118.3z M169.4,109.7c0.7,0,1.2-0.1,1.7-0.2
			s0.9-0.4,1.3-0.7c0.3-0.3,0.6-0.6,0.8-1s0.3-0.9,0.3-1.3c0-1-0.3-1.8-1-2.3s-1.6-0.8-3-0.8H167v6.3H169.4z"/>
		<path class="st0" d="M194.2,109.9c0,1.3-0.2,2.4-0.6,3.5c-0.4,1.1-1,2-1.7,2.7s-1.6,1.3-2.6,1.8c-1,0.4-2.1,0.6-3.4,0.6
			c-1.2,0-2.4-0.2-3.4-0.6s-1.9-1-2.6-1.8c-0.7-0.8-1.3-1.7-1.7-2.7c-0.4-1.1-0.6-2.2-0.6-3.5s0.2-2.4,0.6-3.5c0.4-1.1,1-2,1.7-2.7
			c0.7-0.8,1.6-1.4,2.6-1.8s2.1-0.6,3.4-0.6c1.2,0,2.4,0.2,3.4,0.6s1.9,1,2.6,1.8c0.7,0.8,1.3,1.7,1.7,2.7
			C194,107.5,194.2,108.7,194.2,109.9z M191.8,109.9c0-1-0.1-2-0.4-2.8c-0.3-0.8-0.7-1.5-1.2-2.1s-1.1-1-1.9-1.3
			c-0.7-0.3-1.6-0.5-2.5-0.5s-1.7,0.2-2.4,0.5s-1.4,0.7-1.9,1.3s-0.9,1.3-1.2,2.1c-0.3,0.8-0.4,1.7-0.4,2.8c0,1,0.1,2,0.4,2.8
			c0.3,0.8,0.7,1.5,1.2,2.1s1.1,1,1.9,1.3s1.6,0.5,2.4,0.5c0.9,0,1.7-0.2,2.5-0.5c0.7-0.3,1.4-0.7,1.9-1.3c0.5-0.6,0.9-1.3,1.2-2.1
			C191.7,111.9,191.8,111,191.8,109.9z"/>
		<path class="st0" d="M203.3,116.5c0.7,0,1.3-0.1,1.9-0.4s1-0.6,1.4-1s0.7-0.9,0.9-1.5s0.3-1.2,0.3-1.9v-10.2h2.3v10.2
			c0,1-0.2,1.9-0.5,2.7c-0.3,0.8-0.8,1.5-1.3,2.2c-0.6,0.6-1.3,1.1-2.1,1.4s-1.8,0.5-2.8,0.5s-2-0.2-2.8-0.5s-1.5-0.8-2.1-1.4
			s-1-1.3-1.3-2.2c-0.3-0.8-0.5-1.7-0.5-2.7v-10.2h2.3v10.2c0,0.7,0.1,1.3,0.3,1.9s0.5,1.1,0.9,1.5s0.8,0.8,1.4,1
			S202.6,116.5,203.3,116.5z"/>
		<path class="st0" d="M218.4,101.5c1.1,0,2,0.1,2.8,0.4c0.8,0.2,1.4,0.6,2,1c0.5,0.5,0.9,1,1.2,1.6s0.4,1.4,0.4,2.1
			c0,0.8-0.1,1.5-0.4,2.1c-0.3,0.6-0.7,1.2-1.2,1.7s-1.2,0.8-2,1.1c-0.8,0.3-1.7,0.4-2.7,0.4h-2.7v6.3h-2.3v-16.8h4.9V101.5z
			 M218.4,110.2c0.6,0,1.2-0.1,1.7-0.3s0.9-0.4,1.3-0.7s0.6-0.7,0.8-1.1s0.3-0.9,0.3-1.4c0-1.1-0.3-1.9-1-2.5s-1.7-0.9-3-0.9h-2.7
			v6.9H218.4z"/>
	</g>
	<g>
		<path class="st1" d="M25.9,85.9h19.7v7.6H16.2V55.7h9.7C25.9,55.7,25.9,85.9,25.9,85.9z"/>
		<path class="st1" d="M79.3,93.4h-30V55.7h30v7.6H59.1v7.3H75v7.6H59.1V86h20.2V93.4z"/>
		<path class="st1" d="M92.8,93.8c-3.5,0-6.1-0.8-7.8-2.5c-1.7-1.6-2.5-4.2-2.5-7.7V66.4c0-3.8,0.9-6.5,2.6-8.2s4.5-2.6,8.2-2.6
			h19.4v7.6H95.5c-2.2,0-3.2,1.1-3.2,3.2v17.2c0,0.8,0.2,1.5,0.7,2s1.1,0.7,2,0.7c1.1,0,2.3,0,3.6,0c1.3,0,2.5,0,3.7,0
			c1.3,0,2.7,0,4,0v-8h-7v-6.5H116v20.8c-2.7,0.4-5.4,0.6-8.1,0.6c-2.3,0.4-4.9,0.6-7.6,0.6C97.6,93.8,95.1,93.8,92.8,93.8z"/>
		<path class="st1" d="M128.1,93.4h-10.5l14.3-37.8h10.8L157,93.4h-10.5l-2.4-6.7h-13.5L128.1,93.4z M133,79.7h8.6L137.3,67
			L133,79.7z"/>
		<path class="st1" d="M167.8,93.6c-3.5,0-6.1-0.8-7.8-2.5c-1.7-1.6-2.5-4.2-2.5-7.7v-17c0-3.7,0.9-6.5,2.6-8.1
			c1.7-1.7,4.5-2.5,8.2-2.5h19.4v7.6h-17.3c-2.2,0-3.2,1.1-3.2,3.2v17.2c0,0.8,0.2,1.5,0.7,2s1.1,0.7,2,0.7c0.7,0,1.5,0,2.4,0
			s1.8,0,2.8,0s2,0,2.9,0c1,0,2-0.2,2.9-0.5c2.2,0,4.5,0,6.8,0v7.1c-2.4,0.5-4.8,0.7-7.2,0.7c-2.1,0-4.2,0-6.5,0
			C171.8,93.6,169.7,93.6,167.8,93.6z"/>
		<path class="st1" d="M187.8,55.7H198l8.9,18.3l8.9-18.3h10.3l-14.3,27.8v10h-9.7v-10L187.8,55.7z"/>
	</g>
	<g>
		<path class="st1" d="M17.5,125.8l-0.4,2.8h3.2l-0.2,1.3H17l-0.5,3.8h-1.7l1.1-9.3h5.4l-0.2,1.3L17.5,125.8L17.5,125.8z"/>
		<path class="st1" d="M24.5,132.4c-0.3,0.5-0.6,0.8-1,1.1s-0.8,0.4-1.2,0.4c-0.2,0-0.5,0-0.7-0.1s-0.4-0.2-0.6-0.4
			s-0.3-0.4-0.4-0.7s-0.1-0.6-0.1-1s0-0.8,0.1-1.2s0.2-0.7,0.4-1.1s0.4-0.6,0.7-0.9c0.3-0.3,0.5-0.5,0.9-0.7c0.3-0.2,0.7-0.4,1-0.5
			s0.8-0.2,1.2-0.2c0.3,0,0.6,0,0.9,0.1c0.3,0,0.6,0.1,0.9,0.2l-0.8,6.4H25c-0.2,0-0.3-0.1-0.4-0.2c-0.1-0.1-0.1-0.2-0.1-0.4V132.4z
			 M24.9,128.2c-0.1,0-0.1,0-0.2,0s-0.1,0-0.2,0c-0.4,0-0.7,0.1-1,0.2c-0.3,0.2-0.6,0.4-0.8,0.7c-0.2,0.3-0.4,0.6-0.5,1
			s-0.2,0.8-0.2,1.2c0,0.5,0.1,0.8,0.2,1s0.3,0.3,0.6,0.3c0.2,0,0.3-0.1,0.5-0.2c0.2-0.1,0.3-0.3,0.5-0.5s0.3-0.5,0.4-0.8
			s0.2-0.6,0.3-0.9L24.9,128.2z"/>
		<path class="st1" d="M27,133.8l0.8-6.6h0.8c0.2,0,0.3,0,0.4,0.1s0.1,0.2,0.1,0.4v0.7c0.3-0.5,0.6-0.8,1-1c0.3-0.2,0.7-0.3,1.1-0.3
			s0.7,0.1,1,0.4c0.2,0.3,0.4,0.7,0.4,1.2c0.3-0.5,0.7-0.9,1-1.2c0.4-0.3,0.8-0.4,1.2-0.4c0.3,0,0.5,0.1,0.7,0.2s0.4,0.3,0.5,0.5
			c0.1,0.2,0.2,0.5,0.3,0.8c0,0.3,0,0.7,0,1.1l-0.5,4.2h-1.6l0.5-4.2c0.1-0.4,0-0.7,0-0.9c-0.1-0.2-0.2-0.3-0.5-0.3
			c-0.2,0-0.3,0-0.5,0.1s-0.3,0.2-0.4,0.4c-0.1,0.2-0.3,0.4-0.4,0.6c-0.1,0.2-0.2,0.5-0.3,0.8l-0.4,3.5h-1.6l0.5-4.2
			c0.1-0.4,0-0.7,0-0.9c-0.1-0.2-0.2-0.3-0.5-0.3c-0.2,0-0.3,0-0.5,0.1s-0.3,0.2-0.4,0.4s-0.3,0.4-0.4,0.6s-0.2,0.5-0.3,0.8
			l-0.4,3.5H27V133.8z"/>
		<path class="st1" d="M39.5,127.2l-0.8,6.6h-1.6l0.8-6.6C37.9,127.2,39.5,127.2,39.5,127.2z M39.9,125.3c0,0.1,0,0.3-0.1,0.4
			s-0.1,0.2-0.2,0.3c-0.1,0.1-0.2,0.2-0.3,0.2c-0.1,0.1-0.2,0.1-0.4,0.1c-0.1,0-0.2,0-0.4-0.1c-0.1-0.1-0.2-0.1-0.3-0.2
			s-0.2-0.2-0.2-0.3s-0.1-0.2-0.1-0.4c0-0.1,0-0.3,0.1-0.4s0.1-0.2,0.2-0.3c0.1-0.1,0.2-0.2,0.3-0.2c0.1-0.1,0.2-0.1,0.4-0.1
			c0.1,0,0.3,0,0.4,0.1c0.1,0.1,0.2,0.1,0.3,0.2s0.2,0.2,0.2,0.3C39.8,125,39.9,125.1,39.9,125.3z"/>
		<path class="st1" d="M40,133.8l1.2-9.6h1.6l-1.2,9.6H40z"/>
		<path class="st1" d="M49.2,127.2l-4.4,8.4c-0.1,0.1-0.1,0.2-0.2,0.2c-0.1,0.1-0.2,0.1-0.3,0.1h-1.2l1.5-2.7l-1.7-6.1h1.3
			c0.1,0,0.2,0,0.3,0.1s0.1,0.1,0.1,0.2l0.8,3.4c0,0.2,0.1,0.4,0.1,0.7c0-0.1,0.1-0.2,0.1-0.3s0.1-0.2,0.2-0.3l1.6-3.4
			c0-0.1,0.1-0.2,0.2-0.2s0.2-0.1,0.3-0.1L49.2,127.2L49.2,127.2z"/>
		<path class="st1" d="M48.6,135.4c-0.1-0.1-0.1-0.1-0.1-0.2c0-0.1,0-0.1,0.1-0.2c0.1-0.1,0.2-0.2,0.2-0.3s0.2-0.2,0.3-0.4
			s0.2-0.3,0.2-0.5c-0.1,0-0.3,0-0.4-0.1c-0.1,0-0.2-0.1-0.3-0.2s-0.1-0.2-0.2-0.3c0-0.1-0.1-0.2-0.1-0.4c0-0.1,0-0.2,0.1-0.3
			c0-0.1,0.1-0.2,0.2-0.3c0.1-0.1,0.2-0.1,0.3-0.2c0.1,0,0.2-0.1,0.4-0.1s0.3,0,0.4,0.1c0.1,0.1,0.2,0.1,0.3,0.2
			c0.1,0.1,0.1,0.2,0.2,0.3c0,0.1,0.1,0.3,0.1,0.4c0,0.2,0,0.4-0.1,0.7c-0.1,0.2-0.2,0.5-0.3,0.7s-0.3,0.4-0.4,0.7
			c-0.2,0.2-0.4,0.4-0.6,0.6L48.6,135.4z"/>
		<path class="st1" d="M59.2,133.7c-0.4,0.1-0.8,0.2-1.3,0.2c-0.6,0-1.1-0.1-1.6-0.3s-0.9-0.5-1.2-0.9s-0.6-0.8-0.8-1.3
			s-0.3-1-0.3-1.6c0-0.5,0.1-1,0.2-1.5s0.3-0.9,0.5-1.3s0.5-0.8,0.8-1.1c0.3-0.3,0.6-0.6,1-0.8c0.4-0.2,0.8-0.4,1.2-0.5
			s0.9-0.2,1.4-0.2c0.6,0,1.1,0.1,1.6,0.3s0.9,0.5,1.2,0.9s0.6,0.8,0.8,1.3s0.3,1.1,0.3,1.6c0,0.5-0.1,1-0.2,1.4s-0.3,0.9-0.5,1.3
			c-0.2,0.4-0.4,0.7-0.7,1.1c-0.3,0.3-0.6,0.6-0.9,0.8l1.9,2.5h-1.4c-0.2,0-0.4,0-0.5-0.1c-0.2-0.1-0.3-0.2-0.4-0.3L59.2,133.7z
			 M55.8,129.7c0,0.4,0.1,0.8,0.2,1.1c0.1,0.3,0.3,0.6,0.5,0.9c0.2,0.2,0.4,0.4,0.7,0.6s0.6,0.2,1,0.2c0.5,0,0.9-0.1,1.3-0.3
			s0.7-0.5,1-0.8s0.5-0.8,0.6-1.2c0.1-0.5,0.2-1,0.2-1.6c0-0.4-0.1-0.8-0.2-1.1s-0.3-0.6-0.5-0.9c-0.2-0.2-0.4-0.4-0.7-0.6
			c-0.3-0.1-0.6-0.2-1-0.2c-0.5,0-0.9,0.1-1.3,0.3c-0.4,0.2-0.7,0.5-1,0.8s-0.5,0.8-0.6,1.3C55.9,128.6,55.8,129.1,55.8,129.7z"/>
		<path class="st1" d="M69.6,127.2l-0.8,6.6H68c-0.4,0-0.6-0.2-0.6-0.5v-0.8c-0.3,0.5-0.7,0.8-1.1,1.1s-0.8,0.3-1.2,0.3
			c-0.3,0-0.5-0.1-0.7-0.2c-0.2-0.1-0.4-0.3-0.5-0.5s-0.2-0.5-0.3-0.8s-0.1-0.7,0-1.1l0.5-4.2h1.6l-0.5,4.2c-0.1,0.4,0,0.7,0.1,0.9
			s0.3,0.3,0.5,0.3s0.3,0,0.5-0.1s0.4-0.2,0.5-0.4s0.3-0.4,0.5-0.6c0.1-0.2,0.3-0.5,0.4-0.8l0.4-3.4
			C68.1,127.2,69.6,127.2,69.6,127.2z"/>
		<path class="st1" d="M74,132.4c-0.3,0.5-0.6,0.8-1,1.1s-0.8,0.4-1.2,0.4c-0.2,0-0.5,0-0.7-0.1s-0.4-0.2-0.6-0.4s-0.3-0.4-0.4-0.7
			s-0.1-0.6-0.1-1s0-0.8,0.1-1.2s0.2-0.7,0.4-1.1s0.4-0.6,0.7-0.9c0.3-0.3,0.5-0.5,0.9-0.7c0.3-0.2,0.7-0.4,1-0.5s0.8-0.2,1.2-0.2
			c0.3,0,0.6,0,0.9,0.1c0.3,0,0.6,0.1,0.9,0.2l-0.8,6.4h-0.8c-0.2,0-0.3-0.1-0.4-0.2c-0.1-0.1-0.1-0.2-0.1-0.4V132.4z M74.4,128.2
			c-0.1,0-0.1,0-0.2,0s-0.1,0-0.2,0c-0.4,0-0.7,0.1-1,0.2c-0.3,0.2-0.6,0.4-0.8,0.7c-0.2,0.3-0.4,0.6-0.5,1s-0.2,0.8-0.2,1.2
			c0,0.5,0.1,0.8,0.2,1s0.3,0.3,0.6,0.3c0.2,0,0.3-0.1,0.5-0.2c0.2-0.1,0.3-0.3,0.5-0.5s0.3-0.5,0.4-0.8s0.2-0.6,0.3-0.9L74.4,128.2
			z"/>
		<path class="st1" d="M76.6,133.8l1.2-9.6h1.6l-1.2,9.6H76.6z"/>
		<path class="st1" d="M81.8,127.2l-0.8,6.6h-1.6l0.8-6.6C80.2,127.2,81.8,127.2,81.8,127.2z M82.2,125.3c0,0.1,0,0.3-0.1,0.4
			s-0.1,0.2-0.2,0.3c-0.1,0.1-0.2,0.2-0.3,0.2c-0.1,0.1-0.2,0.1-0.4,0.1c-0.1,0-0.2,0-0.4-0.1c-0.1-0.1-0.2-0.1-0.3-0.2
			c-0.1-0.1-0.2-0.2-0.2-0.3s-0.1-0.2-0.1-0.4c0-0.1,0-0.3,0.1-0.4s0.1-0.2,0.2-0.3c0.1-0.1,0.2-0.2,0.3-0.2
			c0.1-0.1,0.2-0.1,0.4-0.1c0.1,0,0.3,0,0.4,0.1s0.2,0.1,0.3,0.2s0.2,0.2,0.2,0.3C82.2,125,82.2,125.1,82.2,125.3z"/>
		<path class="st1" d="M82.9,132.4v-0.1c0,0,0-0.1,0-0.2s0-0.2,0-0.3s0-0.3,0.1-0.5l0.4-3h-0.6c-0.1,0-0.1,0-0.2-0.1
			c0-0.1-0.1-0.1,0-0.3l0.1-0.6l1-0.2l0.5-1.8c0-0.1,0.1-0.2,0.1-0.2c0.1,0,0.1-0.1,0.2-0.1h0.9l-0.3,2.1h1.6l-0.1,1.1H85l-0.4,2.9
			c0,0.2,0,0.3-0.1,0.4s0,0.2,0,0.2c0,0.1,0,0.1,0,0.1l0,0c0,0.2,0,0.3,0.1,0.4c0.1,0.1,0.2,0.1,0.3,0.1c0.1,0,0.2,0,0.2,0
			c0.1,0,0.1,0,0.2-0.1l0.1-0.1h0.1h0.1c0,0,0,0.1,0.1,0.1L86,133c-0.2,0.2-0.5,0.3-0.8,0.4c-0.3,0.1-0.6,0.1-0.9,0.1
			c-0.5,0-0.8-0.1-1.1-0.4C83.1,133.3,82.9,132.9,82.9,132.4z"/>
		<path class="st1" d="M93.2,127.2l-4.4,8.4c-0.1,0.1-0.1,0.2-0.2,0.2c-0.1,0.1-0.2,0.1-0.3,0.1h-1.2l1.5-2.7l-1.7-6.1h1.3
			c0.1,0,0.2,0,0.3,0.1c0.1,0.1,0.1,0.1,0.1,0.2l0.8,3.4c0,0.2,0.1,0.4,0.1,0.7c0-0.1,0.1-0.2,0.1-0.3s0.1-0.2,0.2-0.3l1.6-3.4
			c0-0.1,0.1-0.2,0.2-0.2s0.2-0.1,0.3-0.1L93.2,127.2L93.2,127.2z"/>
		<path class="st1" d="M99.2,132.4c-0.3,0.5-0.6,0.8-1,1.1s-0.8,0.4-1.2,0.4c-0.2,0-0.5,0-0.7-0.1s-0.4-0.2-0.6-0.4
			s-0.3-0.4-0.4-0.7s-0.1-0.6-0.1-1s0-0.8,0.1-1.2s0.2-0.7,0.4-1.1s0.4-0.6,0.7-0.9c0.3-0.3,0.5-0.5,0.9-0.7c0.3-0.2,0.7-0.4,1-0.5
			s0.8-0.2,1.2-0.2c0.3,0,0.6,0,0.9,0.1c0.3,0,0.6,0.1,0.9,0.2l-0.8,6.4h-0.8c-0.2,0-0.3-0.1-0.4-0.2c-0.1-0.1-0.1-0.2-0.1-0.4
			V132.4z M99.7,128.2c-0.1,0-0.1,0-0.2,0s-0.1,0-0.2,0c-0.4,0-0.7,0.1-1,0.2c-0.3,0.2-0.6,0.4-0.8,0.7c-0.2,0.3-0.4,0.6-0.5,1
			s-0.2,0.8-0.2,1.2c0,0.5,0.1,0.8,0.2,1s0.3,0.3,0.6,0.3c0.2,0,0.3-0.1,0.5-0.2c0.2-0.1,0.3-0.3,0.5-0.5s0.3-0.5,0.4-0.8
			s0.2-0.6,0.3-0.9L99.7,128.2z"/>
		<path class="st1" d="M103.9,128.5c0.3-0.5,0.7-0.9,1.1-1.1s0.8-0.4,1.3-0.4c0.3,0,0.5,0.1,0.7,0.2s0.4,0.3,0.5,0.5
			s0.2,0.5,0.3,0.8s0.1,0.7,0,1.1l-0.5,4.2h-1.6l0.5-4.2c0.1-0.4,0-0.7-0.1-0.9s-0.3-0.3-0.5-0.3s-0.4,0.1-0.5,0.2
			c-0.2,0.1-0.4,0.2-0.5,0.4s-0.3,0.4-0.5,0.7c-0.1,0.3-0.3,0.6-0.4,0.9l-0.4,3.3h-1.6l0.8-6.6h0.8c0.2,0,0.3,0,0.4,0.1
			s0.1,0.2,0.1,0.4L103.9,128.5z"/>
		<path class="st1" d="M115.2,124.2l-1.2,9.6h-0.8c-0.2,0-0.3-0.1-0.4-0.2c-0.1-0.1-0.1-0.2-0.1-0.4l0.1-0.9
			c-0.2,0.2-0.3,0.5-0.5,0.6c-0.2,0.2-0.4,0.4-0.6,0.5s-0.4,0.2-0.6,0.3s-0.4,0.1-0.7,0.1c-0.3,0-0.5-0.1-0.7-0.2
			c-0.2-0.1-0.4-0.3-0.6-0.5s-0.3-0.5-0.4-0.8s-0.1-0.7-0.1-1.1c0-0.4,0-0.7,0.1-1.1c0.1-0.4,0.2-0.7,0.3-1c0.1-0.3,0.3-0.6,0.5-0.9
			c0.2-0.3,0.4-0.5,0.7-0.7c0.2-0.2,0.5-0.4,0.8-0.5s0.6-0.2,0.8-0.2c0.3,0,0.6,0.1,0.8,0.2s0.5,0.3,0.6,0.4l0.4-3.5h1.6V124.2z
			 M113.1,128.7c-0.1-0.2-0.3-0.3-0.5-0.3c-0.2-0.1-0.4-0.1-0.6-0.1c-0.3,0-0.5,0.1-0.8,0.3s-0.4,0.4-0.6,0.7s-0.3,0.6-0.4,1
			s-0.1,0.7-0.1,1.1c0,0.5,0.1,0.8,0.2,1c0.2,0.2,0.4,0.3,0.6,0.3s0.3-0.1,0.5-0.2c0.2-0.1,0.4-0.3,0.5-0.5c0.2-0.2,0.3-0.5,0.5-0.7
			c0.1-0.3,0.3-0.6,0.4-0.9L113.1,128.7z"/>
		<path class="st1" d="M119.8,133.8h-1.7l1.1-9.3h1.7L119.8,133.8z"/>
		<path class="st1" d="M123.3,128.5c0.3-0.5,0.7-0.9,1.1-1.1s0.8-0.4,1.3-0.4c0.3,0,0.5,0.1,0.7,0.2s0.4,0.3,0.5,0.5
			s0.2,0.5,0.3,0.8s0.1,0.7,0,1.1l-0.5,4.2h-1.6l0.5-4.2c0.1-0.4,0-0.7-0.1-0.9s-0.3-0.3-0.5-0.3s-0.4,0.1-0.5,0.2
			c-0.2,0.1-0.4,0.2-0.5,0.4s-0.3,0.4-0.5,0.7c-0.1,0.3-0.3,0.6-0.4,0.9l-0.4,3.3h-1.6l0.8-6.6h0.8c0.2,0,0.3,0,0.4,0.1
			s0.1,0.2,0.1,0.4L123.3,128.5z"/>
		<path class="st1" d="M128.4,132.4v-0.1c0,0,0-0.1,0-0.2s0-0.2,0-0.3s0-0.3,0.1-0.5l0.4-3h-0.6c-0.1,0-0.1,0-0.2-0.1
			c0-0.1-0.1-0.1,0-0.3l0.1-0.6l1-0.2l0.5-1.8c0-0.1,0.1-0.2,0.1-0.2c0.1,0,0.1-0.1,0.2-0.1h0.9l-0.3,2.1h1.6l-0.1,1.1h-1.6
			l-0.4,2.9c0,0.2,0,0.3-0.1,0.4s0,0.2,0,0.2c0,0.1,0,0.1,0,0.1l0,0c0,0.2,0,0.3,0.1,0.4c0.1,0.1,0.2,0.1,0.3,0.1s0.2,0,0.2,0
			c0.1,0,0.1,0,0.2-0.1l0.1-0.1h0.1h0.1c0,0,0,0.1,0.1,0.1l0.3,0.8c-0.2,0.2-0.5,0.3-0.8,0.4c-0.3,0.1-0.6,0.1-0.9,0.1
			c-0.5,0-0.8-0.1-1.1-0.4C128.6,133.3,128.4,132.9,128.4,132.4z"/>
		<path class="st1" d="M133.8,131.1c0,1,0.4,1.6,1.3,1.6c0.2,0,0.4,0,0.5-0.1s0.3-0.1,0.4-0.1c0.1-0.1,0.2-0.1,0.3-0.2
			c0.1-0.1,0.2-0.1,0.2-0.2c0.1-0.1,0.1-0.1,0.2-0.1c0.1,0,0.2-0.1,0.2-0.1c0.1,0,0.1,0,0.2,0s0.1,0.1,0.1,0.1l0.4,0.5
			c-0.2,0.2-0.5,0.4-0.7,0.6c-0.2,0.2-0.4,0.3-0.7,0.4c-0.2,0.1-0.5,0.2-0.7,0.2c-0.3,0.1-0.5,0.1-0.8,0.1c-0.4,0-0.7-0.1-1.1-0.2
			c-0.3-0.1-0.6-0.3-0.8-0.6c-0.2-0.2-0.4-0.5-0.5-0.9c-0.1-0.3-0.2-0.7-0.2-1.1c0-0.3,0-0.7,0.1-1s0.2-0.7,0.3-1s0.3-0.6,0.5-0.8
			s0.4-0.5,0.7-0.7s0.5-0.3,0.9-0.4c0.3-0.1,0.6-0.2,1-0.2c0.3,0,0.6,0,0.9,0.1c0.3,0.1,0.5,0.2,0.7,0.4c0.2,0.2,0.3,0.3,0.4,0.5
			c0.1,0.2,0.1,0.4,0.1,0.6c0,0.3-0.1,0.6-0.2,0.8c-0.1,0.2-0.3,0.5-0.6,0.7s-0.7,0.4-1.2,0.5C135.3,130.8,134.6,130.9,133.8,131.1
			L133.8,131.1z M135.7,128.2c-0.2,0-0.4,0-0.6,0.1c-0.2,0.1-0.4,0.2-0.5,0.4s-0.3,0.3-0.4,0.6c-0.1,0.2-0.2,0.5-0.3,0.7
			c0.5-0.1,1-0.2,1.3-0.2c0.3-0.1,0.6-0.2,0.8-0.3s0.3-0.2,0.4-0.3c0.1-0.1,0.1-0.2,0.1-0.4c0-0.1,0-0.1,0-0.2
			c0-0.1-0.1-0.1-0.1-0.2s-0.1-0.1-0.2-0.1S135.8,128.2,135.7,128.2z"/>
		<path class="st1" d="M144.6,127.4l-0.1,0.5c0,0.2-0.1,0.3-0.3,0.4l-0.7,0.2c0,0.1,0,0.2,0,0.3s0,0.2,0,0.3c0,0.2,0,0.4-0.1,0.5
			s-0.1,0.3-0.2,0.4c-0.1,0.1-0.1,0.3-0.2,0.4c-0.1,0.1-0.1,0.2-0.2,0.4c-0.1,0.1-0.1,0.3-0.2,0.4s-0.1,0.3-0.1,0.4
			c0,0.2,0,0.3,0.1,0.5c0.1,0.1,0.2,0.3,0.2,0.5c0.1,0.2,0.2,0.3,0.2,0.5c0.1,0.2,0.1,0.4,0.1,0.6c0,0.3-0.1,0.6-0.2,0.9
			c-0.1,0.3-0.4,0.6-0.6,0.8c-0.3,0.2-0.6,0.4-1,0.5s-0.8,0.2-1.3,0.2c-0.4,0-0.8,0-1.1-0.1s-0.6-0.2-0.8-0.4s-0.4-0.3-0.5-0.5
			s-0.2-0.4-0.2-0.7s0.1-0.6,0.2-0.8c0.1-0.2,0.3-0.4,0.5-0.6c0.2-0.2,0.5-0.3,0.7-0.4c0.3-0.1,0.6-0.2,0.9-0.2s0.6-0.1,0.9,0
			c0.3,0,0.6,0,0.8,0.1c0-0.1-0.1-0.3-0.1-0.4c0-0.2,0.1-0.5,0.2-0.8c-0.2,0.1-0.3,0.2-0.6,0.3c-0.2,0.1-0.5,0.1-0.8,0.1
			c-0.2,0-0.5,0-0.7-0.1s-0.4-0.2-0.6-0.4c-0.2-0.2-0.3-0.4-0.4-0.6c-0.1-0.3-0.2-0.5-0.2-0.9c0-0.3,0.1-0.6,0.2-0.9
			c0.1-0.3,0.3-0.6,0.5-0.8s0.5-0.4,0.9-0.6c0.3-0.1,0.8-0.2,1.2-0.2c0.2,0,0.5,0,0.7,0.1s0.4,0.1,0.6,0.3h2.3V127.4z M140.4,135
			c0.2,0,0.5,0,0.7-0.1s0.4-0.1,0.5-0.3s0.3-0.2,0.3-0.4s0.1-0.3,0.1-0.5c0-0.1,0-0.1,0-0.2s0-0.1,0-0.2c-0.5-0.1-0.9-0.1-1.3-0.1
			c-0.4,0-0.7,0.1-0.9,0.1c-0.2,0.1-0.4,0.2-0.5,0.3s-0.2,0.3-0.2,0.4c0,0.3,0.1,0.5,0.3,0.6C139.6,134.9,140,135,140.4,135z
			 M141,130.7c0.2,0,0.4,0,0.5-0.1s0.3-0.2,0.4-0.4c0.1-0.1,0.2-0.3,0.2-0.5c0.1-0.2,0.1-0.4,0.1-0.6c0-0.3-0.1-0.6-0.2-0.7
			c-0.2-0.2-0.4-0.3-0.7-0.3c-0.2,0-0.4,0-0.5,0.1s-0.3,0.2-0.4,0.3s-0.2,0.3-0.2,0.5s-0.1,0.4-0.1,0.6c0,0.3,0.1,0.6,0.2,0.8
			C140.5,130.6,140.7,130.7,141,130.7z"/>
		<path class="st1" d="M146.6,128.8c0.2-0.3,0.3-0.6,0.5-0.8s0.4-0.4,0.6-0.5c0.2-0.1,0.4-0.2,0.6-0.2s0.4,0,0.7,0.1l-0.3,1.5
			c-0.5-0.2-1-0.2-1.4,0.2c-0.4,0.3-0.7,1-0.9,1.9l-0.4,2.9h-1.6l0.8-6.6h0.8c0.2,0,0.3,0,0.4,0.1s0.1,0.2,0.1,0.4L146.6,128.8z"/>
		<path class="st1" d="M151.3,127.2l-0.8,6.6h-1.6l0.8-6.6C149.7,127.2,151.3,127.2,151.3,127.2z M151.7,125.3c0,0.1,0,0.3-0.1,0.4
			s-0.1,0.2-0.2,0.3c-0.1,0.1-0.2,0.2-0.3,0.2c-0.1,0.1-0.2,0.1-0.4,0.1c-0.1,0-0.2,0-0.4-0.1c-0.1-0.1-0.2-0.1-0.3-0.2
			s-0.2-0.2-0.2-0.3s-0.1-0.2-0.1-0.4c0-0.1,0-0.3,0.1-0.4s0.1-0.2,0.2-0.3c0.1-0.1,0.2-0.2,0.3-0.2c0.1-0.1,0.2-0.1,0.4-0.1
			c0.1,0,0.3,0,0.4,0.1c0.1,0.1,0.2,0.1,0.3,0.2s0.2,0.2,0.2,0.3C151.7,125,151.7,125.1,151.7,125.3z"/>
		<path class="st1" d="M152.4,132.4v-0.1c0,0,0-0.1,0-0.2s0-0.2,0-0.3s0-0.3,0.1-0.5l0.4-3h-0.6c-0.1,0-0.1,0-0.2-0.1
			c0-0.1-0.1-0.1,0-0.3l0.1-0.6l1-0.2l0.5-1.8c0-0.1,0.1-0.2,0.1-0.2c0.1,0,0.1-0.1,0.2-0.1h0.9l-0.3,2.1h1.6l-0.1,1.1h-1.6
			l-0.4,2.9c0,0.2,0,0.3-0.1,0.4s0,0.2,0,0.2c0,0.1,0,0.1,0,0.1l0,0c0,0.2,0,0.3,0.1,0.4c0.1,0.1,0.2,0.1,0.3,0.1s0.2,0,0.2,0
			c0.1,0,0.1,0,0.2-0.1l0.1-0.1h0.1h0.1c0,0,0,0.1,0.1,0.1l0.3,0.8c-0.2,0.2-0.5,0.3-0.8,0.4c-0.3,0.1-0.6,0.1-0.9,0.1
			c-0.5,0-0.8-0.1-1.1-0.4C152.5,133.3,152.4,132.9,152.4,132.4z"/>
		<path class="st1" d="M162.7,127.2l-4.4,8.4c-0.1,0.1-0.1,0.2-0.2,0.2c-0.1,0.1-0.2,0.1-0.3,0.1h-1.2l1.5-2.7l-1.7-6.1h1.3
			c0.1,0,0.2,0,0.3,0.1s0.1,0.1,0.1,0.2l0.8,3.4c0,0.2,0.1,0.4,0.1,0.7c0-0.1,0.1-0.2,0.1-0.3s0.1-0.2,0.2-0.3l1.6-3.4
			c0-0.1,0.1-0.2,0.2-0.2s0.2-0.1,0.3-0.1L162.7,127.2L162.7,127.2z"/>
		<path class="st1" d="M162,135.4c-0.1-0.1-0.1-0.1-0.1-0.2c0-0.1,0-0.1,0.1-0.2c0.1-0.1,0.2-0.2,0.2-0.3s0.2-0.2,0.3-0.4
			s0.2-0.3,0.2-0.5c-0.1,0-0.3,0-0.4-0.1c-0.1,0-0.2-0.1-0.3-0.2s-0.1-0.2-0.2-0.3c0-0.1-0.1-0.2-0.1-0.4c0-0.1,0-0.2,0.1-0.3
			c0-0.1,0.1-0.2,0.2-0.3c0.1-0.1,0.2-0.1,0.3-0.2c0.1,0,0.2-0.1,0.4-0.1s0.3,0,0.4,0.1c0.1,0.1,0.2,0.1,0.3,0.2
			c0.1,0.1,0.1,0.2,0.2,0.3c0,0.1,0.1,0.3,0.1,0.4c0,0.2,0,0.4-0.1,0.7c-0.1,0.2-0.2,0.5-0.3,0.7s-0.3,0.4-0.4,0.7
			c-0.2,0.2-0.4,0.4-0.6,0.6L162,135.4z"/>
		<path class="st1" d="M173.1,126.1c-0.1,0.1-0.1,0.1-0.2,0.2s-0.1,0.1-0.2,0.1s-0.2,0-0.3-0.1s-0.2-0.1-0.3-0.2s-0.3-0.2-0.4-0.2
			s-0.4-0.1-0.6-0.1c-0.2,0-0.4,0-0.6,0.1c-0.2,0.1-0.3,0.2-0.5,0.3c-0.1,0.1-0.2,0.3-0.3,0.4c-0.1,0.2-0.1,0.3-0.1,0.5
			s0.1,0.4,0.2,0.5c0.1,0.1,0.2,0.2,0.4,0.3s0.4,0.2,0.6,0.3c0.2,0.1,0.4,0.2,0.6,0.2c0.2,0.1,0.4,0.2,0.6,0.3s0.4,0.2,0.6,0.4
			c0.2,0.2,0.3,0.4,0.4,0.6c0.1,0.2,0.2,0.5,0.2,0.8c0,0.5-0.1,0.9-0.2,1.3c-0.2,0.4-0.4,0.8-0.7,1.1s-0.6,0.5-1.1,0.7
			s-0.9,0.3-1.4,0.3c-0.3,0-0.5,0-0.8-0.1s-0.5-0.1-0.7-0.2s-0.4-0.2-0.6-0.4s-0.4-0.3-0.5-0.5l0.6-0.8c0-0.1,0.1-0.1,0.2-0.1
			s0.1-0.1,0.2-0.1c0.1,0,0.1,0,0.2,0.1c0.1,0,0.1,0.1,0.2,0.2c0.1,0.1,0.2,0.1,0.3,0.2c0.1,0.1,0.2,0.1,0.3,0.2
			c0.1,0.1,0.3,0.1,0.4,0.2c0.2,0,0.3,0.1,0.5,0.1c0.5,0,0.9-0.1,1.1-0.4s0.4-0.7,0.4-1.1c0-0.2,0-0.4-0.1-0.5s-0.2-0.3-0.4-0.3
			c-0.2-0.1-0.3-0.2-0.6-0.2c-0.2-0.1-0.4-0.1-0.6-0.2s-0.4-0.2-0.6-0.3c-0.2-0.1-0.4-0.2-0.6-0.4s-0.3-0.4-0.4-0.6
			c-0.1-0.2-0.1-0.5-0.1-0.9s0.1-0.8,0.2-1.2c0.1-0.4,0.4-0.7,0.6-1c0.3-0.3,0.6-0.5,1-0.7s0.8-0.3,1.3-0.3c0.3,0,0.5,0,0.7,0.1
			s0.5,0.1,0.7,0.2s0.4,0.2,0.6,0.3c0.2,0.1,0.3,0.3,0.4,0.4L173.1,126.1z"/>
		<path class="st1" d="M176.1,127.2l-0.8,6.6h-1.6l0.8-6.6C174.5,127.2,176.1,127.2,176.1,127.2z M176.5,125.3c0,0.1,0,0.3-0.1,0.4
			s-0.1,0.2-0.2,0.3c-0.1,0.1-0.2,0.2-0.3,0.2c-0.1,0.1-0.2,0.1-0.4,0.1c-0.1,0-0.2,0-0.4-0.1c-0.1-0.1-0.2-0.1-0.3-0.2
			s-0.2-0.2-0.2-0.3s-0.1-0.2-0.1-0.4c0-0.1,0-0.3,0.1-0.4s0.1-0.2,0.2-0.3c0.1-0.1,0.2-0.2,0.3-0.2c0.1-0.1,0.2-0.1,0.4-0.1
			c0.1,0,0.3,0,0.4,0.1c0.1,0.1,0.2,0.1,0.3,0.2s0.2,0.2,0.2,0.3C176.5,125,176.5,125.1,176.5,125.3z"/>
		<path class="st1" d="M178.7,128.5c0.3-0.5,0.7-0.9,1.1-1.1s0.8-0.4,1.3-0.4c0.3,0,0.5,0.1,0.7,0.2s0.4,0.3,0.5,0.5
			s0.2,0.5,0.3,0.8s0.1,0.7,0,1.1l-0.5,4.2h-1.6l0.5-4.2c0.1-0.4,0-0.7-0.1-0.9s-0.3-0.3-0.5-0.3s-0.4,0.1-0.5,0.2
			c-0.2,0.1-0.4,0.2-0.5,0.4s-0.3,0.4-0.5,0.7c-0.1,0.3-0.3,0.6-0.4,0.9l-0.4,3.3h-1.6l0.8-6.6h0.8c0.2,0,0.3,0,0.4,0.1
			s0.1,0.2,0.1,0.4L178.7,128.5z"/>
		<path class="st1" d="M187.9,133.2c-0.2,0.2-0.4,0.3-0.6,0.4c-0.2,0.1-0.4,0.2-0.6,0.2c-0.2,0-0.5,0.1-0.7,0.1
			c-0.4,0-0.7-0.1-1-0.2c-0.3-0.1-0.6-0.3-0.8-0.6c-0.2-0.2-0.4-0.5-0.5-0.9c-0.1-0.3-0.2-0.7-0.2-1.1c0-0.4,0-0.7,0.1-1
			s0.2-0.7,0.3-1s0.3-0.6,0.5-0.8s0.4-0.5,0.7-0.6c0.3-0.2,0.5-0.3,0.8-0.4s0.6-0.2,1-0.2s0.8,0.1,1.1,0.2c0.3,0.2,0.6,0.4,0.8,0.7
			l-0.5,0.6l-0.1,0.1c-0.1,0-0.1,0-0.2,0c-0.1,0-0.1,0-0.2-0.1c-0.1,0-0.1-0.1-0.2-0.1c-0.1-0.1-0.2-0.1-0.3-0.1s-0.3-0.1-0.5-0.1
			s-0.5,0.1-0.7,0.2c-0.2,0.1-0.4,0.3-0.6,0.6c-0.2,0.2-0.3,0.5-0.4,0.9c-0.1,0.3-0.2,0.7-0.2,1.1c0,0.5,0.1,0.9,0.3,1.1
			c0.2,0.3,0.5,0.4,0.9,0.4c0.2,0,0.3,0,0.4-0.1c0.1,0,0.2-0.1,0.3-0.1s0.2-0.1,0.3-0.2c0.1-0.1,0.1-0.1,0.2-0.2s0.1-0.1,0.2-0.1
			c0.1,0,0.1-0.1,0.2-0.1c0.1,0,0.1,0,0.2,0s0.1,0.1,0.1,0.1l0.4,0.5C188.3,132.9,188.1,133.1,187.9,133.2z"/>
		<path class="st1" d="M190.5,131.1c0,1,0.4,1.6,1.3,1.6c0.2,0,0.4,0,0.5-0.1s0.3-0.1,0.4-0.1c0.1-0.1,0.2-0.1,0.3-0.2
			c0.1-0.1,0.2-0.1,0.2-0.2c0.1-0.1,0.1-0.1,0.2-0.1c0.1,0,0.2-0.1,0.2-0.1c0.1,0,0.1,0,0.2,0s0.1,0.1,0.1,0.1l0.4,0.5
			c-0.2,0.2-0.5,0.4-0.7,0.6c-0.2,0.2-0.4,0.3-0.7,0.4c-0.2,0.1-0.5,0.2-0.7,0.2c-0.3,0.1-0.5,0.1-0.8,0.1c-0.4,0-0.7-0.1-1.1-0.2
			c-0.3-0.1-0.6-0.3-0.8-0.6c-0.2-0.2-0.4-0.5-0.5-0.9c-0.1-0.3-0.2-0.7-0.2-1.1c0-0.3,0-0.7,0.1-1s0.2-0.7,0.3-1s0.3-0.6,0.5-0.8
			s0.4-0.5,0.7-0.7s0.5-0.3,0.9-0.4c0.3-0.1,0.6-0.2,1-0.2c0.3,0,0.6,0,0.9,0.1c0.3,0.1,0.5,0.2,0.7,0.4c0.2,0.2,0.3,0.3,0.4,0.5
			c0.1,0.2,0.1,0.4,0.1,0.6c0,0.3-0.1,0.6-0.2,0.8c-0.1,0.2-0.3,0.5-0.6,0.7s-0.7,0.4-1.2,0.5C191.9,130.8,191.3,130.9,190.5,131.1
			L190.5,131.1z M192.3,128.2c-0.2,0-0.4,0-0.6,0.1c-0.2,0.1-0.4,0.2-0.5,0.4s-0.3,0.3-0.4,0.6c-0.1,0.2-0.2,0.5-0.3,0.7
			c0.5-0.1,1-0.2,1.3-0.2c0.3-0.1,0.6-0.2,0.8-0.3s0.3-0.2,0.4-0.3c0.1-0.1,0.1-0.2,0.1-0.4c0-0.1,0-0.1,0-0.2
			c0-0.1-0.1-0.1-0.1-0.2s-0.1-0.1-0.2-0.1S192.5,128.2,192.3,128.2z"/>
		<path class="st1" d="M203.4,132.6l-0.1,1.1h-4.8l0.1-1.1h1.7l0.7-5.6c0-0.1,0-0.2,0-0.3c0-0.1,0-0.2,0.1-0.3l-1.3,1.1
			c-0.1,0.1-0.2,0.1-0.2,0.1c-0.1,0-0.1,0-0.2,0c-0.1,0-0.1,0-0.2-0.1l-0.1-0.1l-0.4-0.7l2.9-2.4h1.3l-1,8.2h1.5V132.6z"/>
		<path class="st1" d="M208.7,130.2c0.1-0.1,0.1-0.2,0.2-0.3c0.1-0.1,0.1-0.2,0.2-0.2c-0.2,0.1-0.4,0.2-0.7,0.3
			c-0.2,0.1-0.5,0.1-0.7,0.1c-0.3,0-0.5,0-0.8-0.1c-0.2-0.1-0.5-0.2-0.7-0.4s-0.3-0.4-0.5-0.7c-0.1-0.3-0.2-0.6-0.2-1
			c0-0.5,0.1-0.9,0.3-1.3s0.4-0.8,0.7-1.1c0.3-0.3,0.7-0.5,1.1-0.7c0.4-0.2,0.9-0.3,1.3-0.3c0.4,0,0.8,0.1,1.1,0.2s0.6,0.3,0.8,0.5
			s0.4,0.5,0.5,0.8s0.2,0.7,0.2,1.1c0,0.3,0,0.6-0.1,0.9c-0.1,0.3-0.2,0.6-0.3,0.8c-0.1,0.3-0.3,0.5-0.4,0.8
			c-0.2,0.3-0.4,0.5-0.6,0.8l-2.3,3.1c-0.1,0.1-0.2,0.2-0.3,0.3s-0.3,0.1-0.5,0.1h-1.4L208.7,130.2z M207.2,127.6
			c0,0.4,0.1,0.7,0.3,1c0.2,0.2,0.5,0.3,0.9,0.3c0.3,0,0.5,0,0.7-0.1s0.4-0.2,0.5-0.4s0.3-0.4,0.3-0.6c0.1-0.2,0.1-0.5,0.1-0.7
			c0-0.4-0.1-0.8-0.3-1s-0.5-0.4-0.9-0.4c-0.2,0-0.5,0-0.7,0.1s-0.4,0.2-0.5,0.4c-0.1,0.2-0.3,0.4-0.3,0.6S207.2,127.3,207.2,127.6z
			"/>
		<path class="st1" d="M219.2,124.5l-0.1,0.7c0,0.2-0.1,0.4-0.1,0.5s-0.1,0.2-0.2,0.3l-4.1,7.3c-0.1,0.1-0.2,0.3-0.3,0.4
			c-0.1,0.1-0.3,0.2-0.5,0.2h-1.1l4.1-7.2c0.1-0.1,0.2-0.3,0.3-0.4s0.2-0.2,0.3-0.3h-4c-0.1,0-0.2,0-0.2-0.1
			c-0.1-0.1-0.1-0.2-0.1-0.2l0.1-1h5.9V124.5z"/>
		<path class="st1" d="M225.2,132.6l-0.1,1.1h-4.8l0.1-1.1h1.7l0.7-5.6c0-0.1,0-0.2,0-0.3c0-0.1,0-0.2,0.1-0.3l-1.3,1.1
			c-0.1,0.1-0.2,0.1-0.2,0.1c-0.1,0-0.1,0-0.2,0c-0.1,0-0.1,0-0.2-0.1l-0.1-0.1l-0.4-0.7l2.9-2.4h1.3l-1,8.2h1.5V132.6z"/>
	</g>
	<g>
		<g>
			<path class="st2" d="M252.1,76.4c2.1-8.3,6.4-22.4,5.2-29c-17.4-13.9-43-20.9-73.4-24c-44.3,5.8-91.3,4.9-129.4-0.1
				c31.8,6,84.2,13.8,122.5,8.5C217.2,37.5,244.2,54.3,252.1,76.4z"/>
		</g>
		<g>
			<path class="st2" d="M61.1,20.2C101.4,2.7,148.3,9.4,184,23.4C94.6-25,52.9,24.2,3.8,24.4C3,38,3.7,48.2,6.5,54.1
				C17.1,44.4,33.3,33.5,61.1,20.2z"/>
		</g>
	</g>
	<g>
		<path class="st0" d="M250.1,74.1c2.1-8.3,6.4-22.4,5.2-29c-17.4-13.9-43-20.9-73.4-24C137.6,26.9,90.6,26,52.5,21
			c31.8,6,84.2,13.8,122.5,8.5C215.2,35.2,242.2,51.9,250.1,74.1z"/>
	</g>
	<g>
		<path class="st0" d="M59.1,20.6C99.5,3.2,146.4,9.8,182,23.8C92.7-24.5,51,24.7,1.9,24.9C1,38.4,1.8,48.7,4.6,54.6
			C15.2,44.9,31.4,34,59.1,20.6z"/>
	</g>
</g>
<g>
	<g>
		<text transform="matrix(1 0 0 1 49.3181 178.7393)" class="st3 st4 st5"> </text>
	</g>
	<g>
		<text transform="matrix(1 0 0 1 49.3181 187.5195)" class="st3 st6 st5"> </text>
	</g>
	<g>
		<g>
			<g>
				<polygon class="st1" points="113,170.3 112.1,174.6 116.1,174.6 113.4,188 118.8,188 121.6,174.6 125.4,174.6 126.3,170.3 				
					"/>
			</g>
		</g>
	</g>
	<polygon class="st7" points="162,180.9 163,183.7 165.9,183.8 163.6,185.6 164.4,188.4 162,186.7 159.6,188.4 160.4,185.6 
		158.1,183.8 161,183.7 	"/>
	<path class="st1" d="M161.3,172.8H161v-1.9h0.7c0.5,0,0.7,0.2,0.7,0.6c0,0.4-0.2,0.5-0.5,0.5l0.5,0.9h-0.4l-0.5-0.8h-0.3V172.8z
		 M161.6,171.7c0.2,0,0.4,0,0.4-0.3c0-0.2-0.2-0.3-0.4-0.3h-0.4v0.6H161.6z M161.6,173.5c-1,0-1.7-0.8-1.7-1.7
		c0-1.1,0.8-1.7,1.7-1.7c0.9,0,1.7,0.7,1.7,1.7C163.3,172.8,162.5,173.5,161.6,173.5z M161.6,170.4c-0.8,0-1.3,0.6-1.3,1.4
		c0,0.8,0.5,1.4,1.3,1.4c0.7,0,1.3-0.6,1.3-1.4C163,170.9,162.4,170.4,161.6,170.4z"/>
	<path class="st1" d="M72.5,170.3l2.2,17.7h-5.9l-0.3-3.5h-5l-1.9,3.5h-4.7l9.5-17.7H72.5z M67.9,175.5l-2.6,5.1h3.1L67.9,175.5z"/>
	<path class="st1" d="M45.4,172.7c-1.5,1.4-3.6,4.2-3.9,8.5c-0.3,5.7,4.1,7.2,7,7.1c2.4-0.1,7.1-0.8,9.2-6.7l-5.3-0.1
		c0,0-0.7,2.7-3.1,2.7c-2.5,0-2.1-3-1.8-4.5c0.3-1.5,1.2-5.7,3.8-5.7c2.7,0,1.8,3.4,1.8,3.4l5.4-0.3c0,0,0.3-2.7-0.8-4.6
		c-1-1.6-2.9-2.5-5.7-2.5C49.4,170.1,47.1,171.1,45.4,172.7z"/>
	<path class="st1" d="M75.6,188l3.7-17.7c0,0,8.6,0,9.6,0c2.1,0,6.4,0.5,6.2,4.6c-0.3,4.2-4.4,5.4-4.4,5.4l1.8,7.7h-6.4l-1.4-6.9
		h-1.8l-1.4,6.9H75.6z M83.6,177.4c0,0,1.1,0,2.2,0c1.1,0,2.6,0,3-1.7c0.4-1.7-1.7-1.7-1.7-1.7h-2.8L83.6,177.4z"/>
	<path class="st1" d="M135.8,170.3L138,188h-5.9l-0.3-3.5h-5l-1.9,3.5h-4.7l9.5-17.7H135.8z M131.1,175.5l-2.6,5.1h3.1L131.1,175.5z
		"/>
	<path class="st1" d="M139.4,188l3.7-17.7c0,0,8.6,0,9.6,0c2.1,0,6.4,0.5,6.2,4.6c-0.3,4.2-4.4,5.4-4.4,5.4l1.8,7.7h-6.4l-1.4-6.9
		h-1.8l-1.4,6.9H139.4z M147.4,177.4c0,0,1.1,0,2.2,0c1.1,0,2.6,0,3-1.7c0.4-1.7-1.7-1.7-1.7-1.7h-2.8L147.4,177.4z"/>
	<path class="st1" d="M98.5,182l-5.5,0.9c0,0-0.1,5.6,7.5,5.3c7.5-0.3,9.3-4,9.5-6.7c0.2-2.7-1.8-4.5-6.2-5
		c-4.2-0.5-2.6-2.6-0.5-2.5c2.3,0.1,2.5,1.1,2.7,1.8l5-1.4c0,0-0.3-4.5-6.8-4.4c-6.7,0.1-8.7,3.9-9,6.8c-0.2,2.9,3.2,4.1,6.3,4.6
		c2.6,0.4,2.4,1,2.4,1.3c0,0.4-0.3,1.3-2.5,1.3C99.1,184.1,98.6,182.9,98.5,182z"/>
	<polygon class="st7" points="63.8,196.4 64.6,192.8 39.4,192.8 38.7,196.4 	"/>
	<polygon class="st7" points="36.6,192.8 32.9,189.7 23.9,195.3 28.8,186.2 22.2,180.5 31.9,180.5 36.6,171.8 36.6,167 30.5,178.3 
		15,178.3 25.6,187.4 17.7,202.2 32.2,193.1 36,196.3 	"/>
	<g>
		<g>
			<path class="st1" d="M71.4,191.8H72h0.6l0.7,6.1h-0.6h-0.6l-0.1-1.2h-1.9l-0.5,1.2h-0.5h-0.6L71.4,191.8z M70.7,195.6H72
				l-0.2-2.5h0L70.7,195.6z"/>
			<path class="st1" d="M75.2,196.2c0,0.3,0,0.5,0.1,0.6c0.1,0.1,0.2,0.2,0.4,0.2c0.2,0,0.4-0.1,0.6-0.3c0.2-0.2,0.3-0.5,0.3-0.8
				l0.4-2.5h0.5h0.5l-0.8,4.5h-0.5h-0.5l0.1-0.7c0,0.1-0.1,0.2-0.2,0.2c-0.3,0.4-0.7,0.6-1.1,0.6c-0.4,0-0.7-0.1-0.9-0.4
				c-0.1-0.2-0.2-0.4-0.2-0.7c0-0.1,0-0.3,0-0.4l0.5-3.1h0.5h0.5L75.2,196.2z"/>
			<path class="st1" d="M79.9,197.9c-0.2,0-0.4,0-0.6,0c-0.3,0-0.6-0.1-0.7-0.2c-0.1-0.2-0.2-0.4-0.1-0.8l0.5-2.7h-0.5l0.1-0.8h0.5
				l0.2-1.2h1l-0.2,1.2h0.6l-0.1,0.8h-0.6l-0.4,2.5c0,0.1,0,0.2,0,0.3s0.1,0.1,0.3,0.1H80L79.9,197.9z"/>
			<path class="st1" d="M81,197.5c-0.3-0.3-0.4-0.7-0.4-1.3c0-0.9,0.2-1.6,0.7-2.1c0.5-0.6,1-0.9,1.7-0.9c0.5,0,0.9,0.2,1.1,0.5
				c0.3,0.3,0.4,0.7,0.4,1.3c0,0.9-0.2,1.6-0.7,2.1c-0.5,0.6-1,0.9-1.7,0.9C81.7,198,81.3,197.8,81,197.5z M83.1,196.4
				c0.2-0.4,0.3-0.8,0.3-1.4c0-0.3-0.1-0.5-0.2-0.6c-0.1-0.1-0.3-0.2-0.5-0.2c-0.3,0-0.6,0.2-0.8,0.6c-0.2,0.4-0.3,0.8-0.3,1.4
				c0,0.3,0.1,0.5,0.2,0.6c0.1,0.1,0.3,0.2,0.5,0.2C82.6,197,82.9,196.8,83.1,196.4z"/>
			<path class="st1" d="M87.8,191.8h0.5h2c0.4,0,0.7,0.1,0.9,0.3s0.3,0.5,0.3,1c0,0.6-0.2,1-0.6,1.3c-0.1,0.1-0.2,0.1-0.3,0.2
				c0,0,0.1,0,0.1,0.1c0.3,0.2,0.4,0.5,0.4,0.9c0,0.7-0.2,1.3-0.6,1.7c-0.4,0.4-1,0.6-1.7,0.6h-1.6h-0.5L87.8,191.8z M88,196.8h1.2
				c0.3,0,0.6-0.1,0.8-0.3c0.2-0.2,0.3-0.5,0.3-0.8c0-0.2-0.1-0.3-0.2-0.4c-0.1-0.1-0.3-0.1-0.6-0.1h-1.1L88,196.8z M88.4,194.2h1.1
				c0.3,0,0.5-0.1,0.7-0.2c0.2-0.2,0.3-0.4,0.3-0.6c0-0.2-0.1-0.3-0.2-0.4c-0.1-0.1-0.3-0.1-0.5-0.1h-1.2L88.4,194.2z"/>
			<path class="st1" d="M92.2,197.5c-0.3-0.3-0.4-0.7-0.4-1.3c0-0.9,0.2-1.6,0.7-2.1c0.5-0.6,1-0.9,1.7-0.9c0.5,0,0.9,0.2,1.1,0.5
				c0.3,0.3,0.4,0.7,0.4,1.3c0,0.9-0.2,1.6-0.7,2.1c-0.5,0.6-1,0.9-1.7,0.9C92.9,198,92.5,197.8,92.2,197.5z M94.4,196.4
				c0.2-0.4,0.3-0.8,0.3-1.4c0-0.3-0.1-0.5-0.2-0.6c-0.1-0.1-0.3-0.2-0.5-0.2c-0.3,0-0.6,0.2-0.8,0.6c-0.2,0.4-0.3,0.8-0.3,1.4
				c0,0.3,0.1,0.5,0.2,0.6c0.1,0.1,0.3,0.2,0.5,0.2C93.8,197,94.1,196.8,94.4,196.4z"/>
			<path class="st1" d="M97.2,198c-0.4,0-0.7-0.1-0.9-0.4c-0.2-0.3-0.3-0.7-0.3-1.2v0c0-0.9,0.2-1.6,0.6-2.2
				c0.4-0.6,0.9-0.9,1.4-0.9c0.4,0,0.8,0.2,1,0.7l0.4-2.1h0.5h0.5l-1.1,6.1h-0.5h-0.5l0.1-0.5C98.1,197.8,97.7,198,97.2,198z
				 M98.2,194.3c-0.3,0-0.6,0.2-0.8,0.6c-0.2,0.4-0.3,0.8-0.3,1.4c0,0.3,0.1,0.5,0.2,0.6c0.1,0.2,0.2,0.2,0.4,0.2
				c0.3,0,0.5-0.1,0.7-0.3c0.2-0.2,0.3-0.5,0.4-1c0.1-0.5,0.1-0.8,0-1.1C98.6,194.4,98.4,194.3,98.2,194.3z"/>
			<path class="st1" d="M101.9,198.5c-0.2,0.5-0.4,0.8-0.6,1c-0.2,0.2-0.5,0.2-0.8,0.2l-0.5,0l0.2-1c0,0,0.1,0,0.3,0
				c0.1,0,0.3,0,0.4-0.1c0.1-0.1,0.2-0.2,0.3-0.4l0.1-0.2v0l-0.6-4.6h0.5h0.5l0.2,3.3h0l1.4-3.3h0.5h0.5L101.9,198.5z"/>
			<path class="st1" d="M107.1,191.8h0.5h2c0.4,0,0.8,0.1,1,0.3c0.2,0.2,0.3,0.6,0.3,1c0,0.6-0.2,1.1-0.6,1.5
				c-0.1,0.1-0.3,0.3-0.5,0.3l0.1,0.1c0.3,0.2,0.4,0.7,0.3,1.2l-0.1,0.7c0,0.3-0.1,0.4,0,0.5c0,0.1,0.1,0.2,0.1,0.2l0,0.2h-1.1
				c0-0.1,0-0.3,0-0.5c0-0.2,0-0.4,0.1-0.6l0.1-0.4c0.1-0.3,0.1-0.6,0-0.7c-0.1-0.1-0.3-0.2-0.6-0.2h-1.1l-0.4,2.4h-0.5h-0.5
				L107.1,191.8z M107.7,194.5h1.3c0.3,0,0.5-0.1,0.7-0.3c0.2-0.2,0.3-0.5,0.2-0.8c0-0.2-0.1-0.3-0.2-0.4c-0.1-0.1-0.3-0.1-0.5-0.1
				H108L107.7,194.5z"/>
			<path class="st1" d="M112.5,198c-0.5,0-0.8-0.1-1.1-0.4c-0.3-0.3-0.4-0.7-0.4-1.2v0c0-0.9,0.2-1.7,0.6-2.3c0.4-0.6,1-0.9,1.6-0.9
				c0.5,0,0.8,0.1,1,0.4c0.2,0.3,0.4,0.7,0.4,1.2c0,0.4,0,0.7-0.1,1.1H112l0,0.3c0,0.2,0.1,0.4,0.2,0.6c0.1,0.1,0.3,0.2,0.5,0.2
				c0.2,0,0.3,0,0.4-0.1c0.1-0.1,0.2-0.2,0.3-0.3h1c-0.2,0.5-0.4,0.8-0.7,1.1C113.3,197.9,113,198,112.5,198z M113.7,195.2
				c0,0,0-0.1,0-0.1c0-0.3-0.1-0.5-0.2-0.6c-0.1-0.1-0.3-0.2-0.5-0.2c-0.3,0-0.6,0.2-0.8,0.6c-0.1,0.1-0.1,0.2-0.2,0.4H113.7z"/>
			<path class="st1" d="M115.6,193.4h0.5h0.5l-0.1,0.6l0,0c0.4-0.5,0.8-0.7,1.2-0.7c0.4,0,0.7,0.1,0.9,0.4c0.2,0.3,0.3,0.7,0.3,1.2
				v0c0,0.8-0.2,1.6-0.6,2.2c-0.4,0.6-0.9,0.9-1.4,0.9c-0.5,0-0.8-0.2-0.9-0.6l0-0.1l-0.4,2.3h-0.5h-0.5L115.6,193.4z M116.8,197
				c0.3,0,0.6-0.2,0.8-0.6c0.2-0.4,0.3-0.8,0.3-1.4c0-0.3-0.1-0.5-0.2-0.6c-0.1-0.2-0.3-0.2-0.4-0.2c-0.3,0-0.5,0.1-0.7,0.4
				c-0.2,0.2-0.3,0.6-0.4,1.1h0c-0.1,0.4-0.1,0.7,0.1,1C116.4,196.9,116.5,197,116.8,197z"/>
			<path class="st1" d="M120,198c-0.3,0-0.5-0.1-0.7-0.3s-0.3-0.4-0.3-0.7c0-0.5,0.1-0.9,0.4-1.2c0.2-0.3,0.6-0.5,1-0.6l0.8-0.1
				c0.1,0,0.3-0.1,0.4-0.1c0,0,0.1,0,0.1-0.1c0,0,0-0.1,0-0.1l0,0c0-0.2,0-0.3-0.1-0.4c-0.1-0.1-0.2-0.1-0.5-0.1
				c-0.2,0-0.3,0.1-0.4,0.2c-0.1,0.1-0.2,0.3-0.2,0.5h-0.9c0.1-0.5,0.3-0.9,0.6-1.2c0.3-0.3,0.7-0.4,1.3-0.4c0.5,0,0.8,0.1,1,0.3
				c0.2,0.2,0.2,0.4,0.2,0.7c0,0.1,0,0.2,0,0.3l-0.4,2.4c0,0.3-0.1,0.4-0.1,0.5c0,0.1,0.1,0.2,0.1,0.2v0l0,0.2h-0.5h-0.5v0
				c0-0.2,0-0.3,0-0.5l0,0C120.9,197.8,120.5,198,120,198z M121.5,196.2l0.1-0.5c-0.1,0.1-0.2,0.1-0.3,0.1l-0.4,0.1
				c-0.3,0.1-0.5,0.2-0.6,0.3c-0.1,0.1-0.2,0.3-0.2,0.6c0,0.1,0,0.2,0.1,0.3c0.1,0.1,0.2,0.1,0.3,0.1c0.3,0,0.6-0.2,0.8-0.5
				c0,0,0.1-0.1,0.1-0.2C121.4,196.4,121.4,196.3,121.5,196.2z"/>
			<path class="st1" d="M123.8,193.4h0.5h0.5l-0.8,4.5h-0.5H123L123.8,193.4z M124.1,191.7h1l-0.2,1.1h-1L124.1,191.7z"/>
			<path class="st1" d="M125.7,193.4h0.5h0.5l-0.1,0.8c0.1-0.2,0.1-0.3,0.2-0.4c0.3-0.4,0.6-0.6,1-0.6l0.2,0l-0.2,1.2
				c-0.1,0-0.2,0-0.3,0c-0.3,0-0.5,0.1-0.7,0.3c-0.2,0.2-0.3,0.5-0.4,0.9l-0.4,2.3h-0.5h-0.5L125.7,193.4z"/>
			<path class="st1" d="M129.7,197.9l1.1-6.1h3.7l-0.1,0.5l-0.1,0.5h-2.7l-0.2,1.3h2.5l-0.1,0.5l-0.1,0.5h-2.5l-0.3,1.6h2.8
				l-0.1,0.5l-0.1,0.5H129.7z"/>
			<path class="st1" d="M135.5,195.6l-0.8-2.2h0.6h0.6l0.4,1.3l0.8-1.3h0.6h0.6l-1.6,2.2l0.9,2.3h-0.6h-0.6l-0.4-1.3l-0.9,1.3h-0.6
				h-0.6L135.5,195.6z"/>
			<path class="st1" d="M138.9,193.4h0.5h0.5l-0.1,0.6l0,0c0.4-0.5,0.8-0.7,1.2-0.7c0.4,0,0.7,0.1,0.9,0.4c0.2,0.3,0.3,0.7,0.3,1.2
				v0c0,0.8-0.2,1.6-0.6,2.2c-0.4,0.6-0.9,0.9-1.4,0.9c-0.5,0-0.8-0.2-0.9-0.6l0-0.1l-0.4,2.3h-0.5h-0.5L138.9,193.4z M140,197
				c0.3,0,0.6-0.2,0.8-0.6c0.2-0.4,0.3-0.8,0.3-1.4c0-0.3-0.1-0.5-0.2-0.6c-0.1-0.2-0.3-0.2-0.4-0.2c-0.3,0-0.5,0.1-0.7,0.4
				c-0.2,0.2-0.3,0.6-0.4,1.1h0c-0.1,0.4-0.1,0.7,0.1,1C139.6,196.9,139.7,197,140,197z"/>
			<path class="st1" d="M143.9,198c-0.5,0-0.8-0.1-1.1-0.4c-0.3-0.3-0.4-0.7-0.4-1.2v0c0-0.9,0.2-1.7,0.6-2.3c0.4-0.6,1-0.9,1.6-0.9
				c0.5,0,0.8,0.1,1,0.4c0.2,0.3,0.4,0.7,0.4,1.2c0,0.4,0,0.7-0.1,1.1h-2.5l0,0.3c0,0.2,0.1,0.4,0.2,0.6c0.1,0.1,0.3,0.2,0.5,0.2
				c0.2,0,0.3,0,0.4-0.1c0.1-0.1,0.2-0.2,0.3-0.3h1c-0.2,0.5-0.4,0.8-0.7,1.1C144.7,197.9,144.3,198,143.9,198z M145.1,195.2
				c0,0,0-0.1,0-0.1c0-0.3-0.1-0.5-0.2-0.6c-0.1-0.1-0.3-0.2-0.5-0.2c-0.3,0-0.6,0.2-0.8,0.6c-0.1,0.1-0.1,0.2-0.2,0.4H145.1z"/>
			<path class="st1" d="M147,193.4h0.5h0.5l-0.1,0.8c0.1-0.2,0.1-0.3,0.2-0.4c0.3-0.4,0.6-0.6,1-0.6l0.2,0l-0.2,1.2
				c-0.1,0-0.2,0-0.3,0c-0.3,0-0.5,0.1-0.7,0.3c-0.2,0.2-0.3,0.5-0.4,0.9l-0.4,2.3h-0.5h-0.5L147,193.4z"/>
			<path class="st1" d="M150.6,197.9c-0.2,0-0.4,0-0.6,0c-0.3,0-0.6-0.1-0.7-0.2c-0.1-0.2-0.2-0.4-0.1-0.8l0.5-2.7h-0.5l0.1-0.8h0.5
				l0.2-1.2h1l-0.2,1.2h0.6l-0.1,0.8h-0.6l-0.4,2.5c0,0.1,0,0.2,0,0.3c0,0,0.2,0.1,0.3,0.1h0.2L150.6,197.9z"/>
			<path class="st1" d="M153.9,194.7c0-0.2,0-0.3-0.1-0.4c-0.1-0.1-0.2-0.1-0.4-0.1c-0.2,0-0.3,0-0.4,0.1c-0.1,0.1-0.2,0.2-0.2,0.3
				c0,0.1,0,0.2,0.1,0.2c0.1,0.1,0.3,0.1,0.6,0.2c0.5,0.2,0.9,0.4,1.1,0.6c0.1,0.1,0.2,0.3,0.2,0.6c0,0.1,0,0.2,0,0.3
				c-0.1,0.5-0.3,0.9-0.6,1.1s-0.8,0.4-1.3,0.4c-0.5,0-1-0.1-1.2-0.4c-0.2-0.2-0.3-0.5-0.3-0.8c0-0.1,0-0.2,0-0.3h1
				c0,0.2,0,0.4,0.1,0.5c0.1,0.1,0.3,0.2,0.5,0.2c0.2,0,0.3,0,0.5-0.1c0.1-0.1,0.2-0.2,0.2-0.4c0-0.1,0-0.2-0.1-0.2
				c-0.1-0.1-0.3-0.1-0.6-0.3c-0.5-0.2-0.8-0.3-1-0.5c-0.1-0.1-0.2-0.3-0.2-0.6c0-0.1,0-0.2,0-0.3c0.1-0.5,0.3-0.8,0.6-1.1
				c0.3-0.3,0.7-0.4,1.2-0.4c0.5,0,0.9,0.1,1.1,0.4c0.2,0.2,0.3,0.5,0.3,0.8c0,0.1,0,0.2,0,0.3H153.9z"/>
		</g>
	</g>
</g>
<g>
	<path class="st8" d="M17.5,151.4c0.5,0,1,0.1,1.4,0.2c0.4,0.1,0.7,0.3,1,0.5c0.3,0.2,0.5,0.5,0.6,0.8c0.1,0.3,0.2,0.7,0.2,1.1
		c0,0.4-0.1,0.8-0.2,1.1s-0.3,0.6-0.6,0.9c-0.3,0.2-0.6,0.4-1,0.6c-0.4,0.1-0.9,0.2-1.4,0.2h-1.4v3.2H15v-8.6H17.5z M17.5,155.9
		c0.3,0,0.6,0,0.9-0.1c0.3-0.1,0.5-0.2,0.6-0.4c0.2-0.2,0.3-0.3,0.4-0.6s0.1-0.5,0.1-0.7c0-0.5-0.2-1-0.5-1.3
		c-0.3-0.3-0.9-0.5-1.5-0.5h-1.4v3.5H17.5z"/>
	<path class="st8" d="M24.2,153.8c0.4,0,0.8,0.1,1.2,0.2s0.7,0.4,0.9,0.6c0.3,0.3,0.4,0.6,0.6,1c0.1,0.4,0.2,0.8,0.2,1.3
		c0,0.5-0.1,0.9-0.2,1.3c-0.1,0.4-0.3,0.7-0.6,1c-0.3,0.3-0.6,0.5-0.9,0.6c-0.4,0.1-0.8,0.2-1.2,0.2c-0.4,0-0.9-0.1-1.2-0.2
		c-0.4-0.1-0.7-0.4-0.9-0.6c-0.3-0.3-0.4-0.6-0.6-1c-0.1-0.4-0.2-0.8-0.2-1.3c0-0.5,0.1-0.9,0.2-1.3c0.1-0.4,0.3-0.7,0.6-1
		c0.3-0.3,0.6-0.5,0.9-0.6C23.3,153.9,23.8,153.8,24.2,153.8z M24.2,159.3c0.6,0,1-0.2,1.3-0.6c0.3-0.4,0.4-1,0.4-1.7
		c0-0.7-0.1-1.3-0.4-1.7c-0.3-0.4-0.7-0.6-1.3-0.6c-0.3,0-0.6,0.1-0.8,0.2c-0.2,0.1-0.4,0.3-0.6,0.4c-0.1,0.2-0.3,0.4-0.3,0.7
		c-0.1,0.3-0.1,0.6-0.1,1c0,0.7,0.1,1.3,0.4,1.7C23.1,159,23.6,159.3,24.2,159.3z"/>
	<path class="st8" d="M36.7,153.9l-2,6.1h-0.8c-0.1,0-0.2-0.1-0.2-0.2l-1.3-4.1c0-0.1-0.1-0.2-0.1-0.3c0-0.1,0-0.2-0.1-0.3
		c0,0.1,0,0.2-0.1,0.3c0,0.1,0,0.2-0.1,0.3l-1.4,4.1c0,0.1-0.1,0.2-0.2,0.2h-0.8l-2-6.1h0.8c0.1,0,0.2,0,0.2,0.1
		c0.1,0,0.1,0.1,0.1,0.2l1.2,3.9c0.1,0.3,0.1,0.6,0.2,0.8c0-0.1,0.1-0.3,0.1-0.4c0-0.1,0.1-0.3,0.1-0.4l1.3-3.9
		c0-0.1,0.1-0.1,0.1-0.1c0.1,0,0.1-0.1,0.2-0.1h0.5c0.1,0,0.1,0,0.2,0.1c0.1,0,0.1,0.1,0.1,0.1l1.3,3.9c0,0.1,0.1,0.3,0.1,0.4
		c0,0.1,0.1,0.3,0.1,0.4c0-0.1,0-0.3,0.1-0.4c0-0.1,0.1-0.3,0.1-0.4l1.2-3.9c0-0.1,0.1-0.1,0.1-0.2c0.1,0,0.1-0.1,0.2-0.1H36.7z"/>
	<path class="st8" d="M42.6,159.1c-0.1,0.2-0.3,0.3-0.5,0.4c-0.2,0.1-0.4,0.2-0.6,0.3c-0.2,0.1-0.4,0.1-0.7,0.2
		c-0.2,0-0.4,0.1-0.7,0.1c-0.4,0-0.8-0.1-1.2-0.2c-0.4-0.1-0.7-0.3-0.9-0.6c-0.3-0.3-0.5-0.6-0.6-1s-0.2-0.9-0.2-1.4
		c0-0.4,0.1-0.8,0.2-1.2c0.1-0.4,0.3-0.7,0.6-1c0.2-0.3,0.5-0.5,0.9-0.6s0.7-0.2,1.2-0.2c0.4,0,0.7,0.1,1,0.2
		c0.3,0.1,0.6,0.3,0.8,0.5s0.4,0.5,0.5,0.9c0.1,0.3,0.2,0.7,0.2,1.2c0,0.2,0,0.3-0.1,0.3c0,0.1-0.1,0.1-0.2,0.1h-4.1
		c0,0.4,0.1,0.7,0.2,1c0.1,0.3,0.2,0.5,0.4,0.7c0.2,0.2,0.4,0.3,0.6,0.4s0.5,0.1,0.8,0.1c0.3,0,0.5,0,0.7-0.1
		c0.2-0.1,0.4-0.1,0.5-0.2c0.1-0.1,0.3-0.1,0.4-0.2c0.1-0.1,0.2-0.1,0.2-0.1c0.1,0,0.2,0,0.2,0.1L42.6,159.1z M41.8,156.3
		c0-0.2,0-0.5-0.1-0.7c-0.1-0.2-0.2-0.4-0.3-0.5c-0.1-0.1-0.3-0.3-0.5-0.3c-0.2-0.1-0.4-0.1-0.7-0.1c-0.5,0-0.9,0.2-1.2,0.4
		c-0.3,0.3-0.5,0.7-0.6,1.2H41.8z"/>
	<path class="st8" d="M45,155.1c0.2-0.4,0.4-0.7,0.7-1c0.3-0.2,0.6-0.4,1-0.4c0.1,0,0.3,0,0.4,0c0.1,0,0.2,0.1,0.3,0.1l-0.1,0.8
		c0,0.1-0.1,0.1-0.2,0.1c-0.1,0-0.1,0-0.2,0c-0.1,0-0.2,0-0.4,0c-0.2,0-0.4,0-0.5,0.1c-0.1,0.1-0.3,0.1-0.4,0.2
		c-0.1,0.1-0.2,0.2-0.3,0.4c-0.1,0.2-0.2,0.3-0.3,0.6v3.8H44v-6.1h0.6c0.1,0,0.2,0,0.2,0.1c0,0,0.1,0.1,0.1,0.2L45,155.1z"/>
	<path class="st8" d="M53.1,159.1c-0.1,0.2-0.3,0.3-0.5,0.4c-0.2,0.1-0.4,0.2-0.6,0.3c-0.2,0.1-0.4,0.1-0.7,0.2
		c-0.2,0-0.4,0.1-0.7,0.1c-0.4,0-0.8-0.1-1.2-0.2c-0.4-0.1-0.7-0.3-0.9-0.6c-0.3-0.3-0.5-0.6-0.6-1c-0.1-0.4-0.2-0.9-0.2-1.4
		c0-0.4,0.1-0.8,0.2-1.2c0.1-0.4,0.3-0.7,0.6-1c0.2-0.3,0.5-0.5,0.9-0.6c0.4-0.2,0.7-0.2,1.2-0.2c0.4,0,0.7,0.1,1,0.2
		s0.6,0.3,0.8,0.5c0.2,0.2,0.4,0.5,0.5,0.9s0.2,0.7,0.2,1.2c0,0.2,0,0.3-0.1,0.3c0,0.1-0.1,0.1-0.2,0.1h-4.1c0,0.4,0.1,0.7,0.2,1
		s0.2,0.5,0.4,0.7c0.2,0.2,0.4,0.3,0.6,0.4c0.2,0.1,0.5,0.1,0.8,0.1c0.3,0,0.5,0,0.7-0.1c0.2-0.1,0.4-0.1,0.5-0.2
		c0.1-0.1,0.3-0.1,0.4-0.2c0.1-0.1,0.2-0.1,0.2-0.1c0.1,0,0.2,0,0.2,0.1L53.1,159.1z M52.2,156.3c0-0.2,0-0.5-0.1-0.7
		s-0.2-0.4-0.3-0.5s-0.3-0.3-0.5-0.3s-0.4-0.1-0.7-0.1c-0.5,0-0.9,0.2-1.2,0.4c-0.3,0.3-0.5,0.7-0.6,1.2H52.2z"/>
	<path class="st8" d="M59.5,151.2v8.8h-0.6c-0.2,0-0.2-0.1-0.3-0.2l-0.1-0.7c-0.3,0.3-0.6,0.6-0.9,0.8s-0.7,0.3-1.2,0.3
		c-0.3,0-0.7-0.1-0.9-0.2c-0.3-0.1-0.5-0.3-0.7-0.6c-0.2-0.3-0.4-0.6-0.5-1c-0.1-0.4-0.2-0.8-0.2-1.3c0-0.4,0.1-0.9,0.2-1.3
		c0.1-0.4,0.3-0.7,0.5-1c0.2-0.3,0.5-0.5,0.8-0.7c0.3-0.2,0.7-0.2,1.1-0.2c0.4,0,0.7,0.1,1,0.2s0.5,0.3,0.7,0.5v-3.4H59.5z
		 M58.4,155.4c-0.2-0.3-0.4-0.5-0.6-0.6c-0.2-0.1-0.5-0.2-0.8-0.2c-0.6,0-1,0.2-1.3,0.6c-0.3,0.4-0.5,1-0.5,1.7c0,0.4,0,0.7,0.1,1
		s0.2,0.5,0.3,0.7s0.3,0.3,0.5,0.4s0.4,0.1,0.7,0.1c0.4,0,0.7-0.1,0.9-0.2c0.3-0.2,0.5-0.4,0.7-0.7V155.4z"/>
	<path class="st8" d="M65.4,154.8c0.3-0.3,0.5-0.5,0.9-0.7c0.3-0.2,0.7-0.3,1.1-0.3c0.4,0,0.7,0.1,1,0.2c0.3,0.1,0.5,0.3,0.7,0.6
		s0.4,0.6,0.5,0.9c0.1,0.4,0.2,0.8,0.2,1.2c0,0.5-0.1,0.9-0.2,1.3c-0.1,0.4-0.3,0.7-0.5,1c-0.2,0.3-0.5,0.5-0.8,0.7
		c-0.3,0.2-0.7,0.2-1.1,0.2c-0.4,0-0.7-0.1-1-0.2c-0.3-0.2-0.5-0.4-0.7-0.6l-0.1,0.6c0,0.2-0.1,0.2-0.3,0.2h-0.7v-8.8h1.1V154.8z
		 M65.4,158.5c0.2,0.3,0.4,0.5,0.6,0.6c0.2,0.1,0.5,0.2,0.8,0.2c0.6,0,1-0.2,1.3-0.6c0.3-0.4,0.5-1,0.5-1.8c0-0.7-0.1-1.3-0.4-1.6
		c-0.3-0.3-0.7-0.5-1.2-0.5c-0.3,0-0.7,0.1-0.9,0.2s-0.5,0.4-0.7,0.7V158.5z"/>
	<path class="st8" d="M76.1,153.9l-3.4,7.9c0,0.1-0.1,0.1-0.1,0.2c-0.1,0-0.1,0.1-0.2,0.1h-0.8l1.1-2.4l-2.5-5.7H71
		c0.1,0,0.2,0,0.2,0.1c0.1,0,0.1,0.1,0.1,0.2L73,158c0.1,0.2,0.1,0.3,0.2,0.5c0.1-0.2,0.1-0.4,0.2-0.5l1.6-3.8
		c0-0.1,0.1-0.1,0.1-0.2c0.1,0,0.1-0.1,0.2-0.1H76.1z"/>
</g>
</svg>
