<?xml version="1.0" encoding="utf-8"?>
<!-- Generator: Adobe Illustrator 22.0.1, SVG Export Plug-In . SVG Version: 6.00 Build 0)  -->
<svg version="1.1" id="Layer_1" xmlns="http://www.w3.org/2000/svg" xmlns:xlink="http://www.w3.org/1999/xlink" x="0px" y="0px"
	 viewBox="0 0 512 512" style="enable-background:new 0 0 512 512;" xml:space="preserve">
<style type="text/css">
	.st0{fill:#EC1E27;}
	.st1{fill:#FFFFFF;}
</style>
<g>
	<circle class="st0" cx="256" cy="256" r="254"/>
	<g>
		<path class="st1" d="M243.7,180.5c-15.6,0.8-27.7,7-36.5,18.7c-8.8,11.7-13.1,25.7-13.1,42h49v103.9H138.1v-89.3
			c0-33.1,9.4-61.4,28.3-84.9c18.9-23.5,44.6-35.7,77.3-36.5V180.5z M373.9,180.5c-16,0.8-28.4,7-37.3,18.7c-9,11.7-13,25.7-12.3,42
			h49v103.9H268.3v-89.3c0-33.5,8.9-61.5,26.9-84c19.5-24.1,45.7-36.6,78.8-37.4V180.5z"/>
	</g>
</g>
</svg>
